<svg xmlns:xlink="http://www.w3.org/1999/xlink" xmlns="http://www.w3.org/2000/svg" width="614.4pt" height="345.6pt" viewBox="0 0 614.4 345.6" version="1.1">
 <metadata>
  <rdf:RDF xmlns:dc="http://purl.org/dc/elements/1.1/" xmlns:cc="http://creativecommons.org/ns#" xmlns:rdf="http://www.w3.org/1999/02/22-rdf-syntax-ns#">
   <cc:Work>
    <dc:type rdf:resource="http://purl.org/dc/dcmitype/StillImage"/>
    <dc:date>2022-09-06T13:23:24.360183</dc:date>
    <dc:format>image/svg+xml</dc:format>
    <dc:creator>
     <cc:Agent>
      <dc:title>Matplotlib v3.5.2, https://matplotlib.org/</dc:title>
     </cc:Agent>
    </dc:creator>
   </cc:Work>
  </rdf:RDF>
 </metadata>
 <defs>
  <style type="text/css">*{stroke-linejoin: round; stroke-linecap: butt}</style>
 </defs>
 <g id="figure_1">
  <g id="patch_1">
   <path d="M 0 345.6  L 614.4 345.6  L 614.4 0  L 0 0  z " style="fill: #ffffff"/>
  </g>
  <g id="axes_1">
   <g id="patch_2">
    <path d="M 65.03149 312.24351  L 611.39976 312.24351  L 611.39976 3.00024  L 65.03149 3.00024  z " style="fill: #ffffff"/>
   </g>
   <g id="matplotlib.axis_1">
    <g id="xtick_1">
     <g id="line2d_1">
      <defs>
       <path id="m86c5e087d3" d="M 0 0  L 0 3.5  " style="stroke: #000000; stroke-width: 0.8"/>
      </defs>
      <g>
       <use xlink:href="#m86c5e087d3" x="128.661362" y="312.24351" style="stroke: #000000; stroke-width: 0.8"/>
      </g>
     </g>
     <g id="text_1">
      <!-- 6000 -->
      <g transform="translate(115.936362 326.841947)scale(0.1 -0.1)">
       <defs>
        <path id="DejaVuSans-36" d="M 2113 2584  Q 1688 2584 1439 2293  Q 1191 2003 1191 1497  Q 1191 994 1439 701  Q 1688 409 2113 409  Q 2538 409 2786 701  Q 3034 994 3034 1497  Q 3034 2003 2786 2293  Q 2538 2584 2113 2584  z M 3366 4563  L 3366 3988  Q 3128 4100 2886 4159  Q 2644 4219 2406 4219  Q 1781 4219 1451 3797  Q 1122 3375 1075 2522  Q 1259 2794 1537 2939  Q 1816 3084 2150 3084  Q 2853 3084 3261 2657  Q 3669 2231 3669 1497  Q 3669 778 3244 343  Q 2819 -91 2113 -91  Q 1303 -91 875 529  Q 447 1150 447 2328  Q 447 3434 972 4092  Q 1497 4750 2381 4750  Q 2619 4750 2861 4703  Q 3103 4656 3366 4563  z " transform="scale(0.015625)"/>
        <path id="DejaVuSans-30" d="M 2034 4250  Q 1547 4250 1301 3770  Q 1056 3291 1056 2328  Q 1056 1369 1301 889  Q 1547 409 2034 409  Q 2525 409 2770 889  Q 3016 1369 3016 2328  Q 3016 3291 2770 3770  Q 2525 4250 2034 4250  z M 2034 4750  Q 2819 4750 3233 4129  Q 3647 3509 3647 2328  Q 3647 1150 3233 529  Q 2819 -91 2034 -91  Q 1250 -91 836 529  Q 422 1150 422 2328  Q 422 3509 836 4129  Q 1250 4750 2034 4750  z " transform="scale(0.015625)"/>
       </defs>
       <use xlink:href="#DejaVuSans-36"/>
       <use xlink:href="#DejaVuSans-30" x="63.623047"/>
       <use xlink:href="#DejaVuSans-30" x="127.246094"/>
       <use xlink:href="#DejaVuSans-30" x="190.869141"/>
      </g>
     </g>
    </g>
    <g id="xtick_2">
     <g id="line2d_2">
      <g>
       <use xlink:href="#m86c5e087d3" x="213.265723" y="312.24351" style="stroke: #000000; stroke-width: 0.8"/>
      </g>
     </g>
     <g id="text_2">
      <!-- 8000 -->
      <g transform="translate(200.540723 326.841947)scale(0.1 -0.1)">
       <defs>
        <path id="DejaVuSans-38" d="M 2034 2216  Q 1584 2216 1326 1975  Q 1069 1734 1069 1313  Q 1069 891 1326 650  Q 1584 409 2034 409  Q 2484 409 2743 651  Q 3003 894 3003 1313  Q 3003 1734 2745 1975  Q 2488 2216 2034 2216  z M 1403 2484  Q 997 2584 770 2862  Q 544 3141 544 3541  Q 544 4100 942 4425  Q 1341 4750 2034 4750  Q 2731 4750 3128 4425  Q 3525 4100 3525 3541  Q 3525 3141 3298 2862  Q 3072 2584 2669 2484  Q 3125 2378 3379 2068  Q 3634 1759 3634 1313  Q 3634 634 3220 271  Q 2806 -91 2034 -91  Q 1263 -91 848 271  Q 434 634 434 1313  Q 434 1759 690 2068  Q 947 2378 1403 2484  z M 1172 3481  Q 1172 3119 1398 2916  Q 1625 2713 2034 2713  Q 2441 2713 2670 2916  Q 2900 3119 2900 3481  Q 2900 3844 2670 4047  Q 2441 4250 2034 4250  Q 1625 4250 1398 4047  Q 1172 3844 1172 3481  z " transform="scale(0.015625)"/>
       </defs>
       <use xlink:href="#DejaVuSans-38"/>
       <use xlink:href="#DejaVuSans-30" x="63.623047"/>
       <use xlink:href="#DejaVuSans-30" x="127.246094"/>
       <use xlink:href="#DejaVuSans-30" x="190.869141"/>
      </g>
     </g>
    </g>
    <g id="xtick_3">
     <g id="line2d_3">
      <g>
       <use xlink:href="#m86c5e087d3" x="297.870083" y="312.24351" style="stroke: #000000; stroke-width: 0.8"/>
      </g>
     </g>
     <g id="text_3">
      <!-- 10000 -->
      <g transform="translate(281.963833 326.841947)scale(0.1 -0.1)">
       <defs>
        <path id="DejaVuSans-31" d="M 794 531  L 1825 531  L 1825 4091  L 703 3866  L 703 4441  L 1819 4666  L 2450 4666  L 2450 531  L 3481 531  L 3481 0  L 794 0  L 794 531  z " transform="scale(0.015625)"/>
       </defs>
       <use xlink:href="#DejaVuSans-31"/>
       <use xlink:href="#DejaVuSans-30" x="63.623047"/>
       <use xlink:href="#DejaVuSans-30" x="127.246094"/>
       <use xlink:href="#DejaVuSans-30" x="190.869141"/>
       <use xlink:href="#DejaVuSans-30" x="254.492188"/>
      </g>
     </g>
    </g>
    <g id="xtick_4">
     <g id="line2d_4">
      <g>
       <use xlink:href="#m86c5e087d3" x="382.474443" y="312.24351" style="stroke: #000000; stroke-width: 0.8"/>
      </g>
     </g>
     <g id="text_4">
      <!-- 12000 -->
      <g transform="translate(366.568193 326.841947)scale(0.1 -0.1)">
       <defs>
        <path id="DejaVuSans-32" d="M 1228 531  L 3431 531  L 3431 0  L 469 0  L 469 531  Q 828 903 1448 1529  Q 2069 2156 2228 2338  Q 2531 2678 2651 2914  Q 2772 3150 2772 3378  Q 2772 3750 2511 3984  Q 2250 4219 1831 4219  Q 1534 4219 1204 4116  Q 875 4013 500 3803  L 500 4441  Q 881 4594 1212 4672  Q 1544 4750 1819 4750  Q 2544 4750 2975 4387  Q 3406 4025 3406 3419  Q 3406 3131 3298 2873  Q 3191 2616 2906 2266  Q 2828 2175 2409 1742  Q 1991 1309 1228 531  z " transform="scale(0.015625)"/>
       </defs>
       <use xlink:href="#DejaVuSans-31"/>
       <use xlink:href="#DejaVuSans-32" x="63.623047"/>
       <use xlink:href="#DejaVuSans-30" x="127.246094"/>
       <use xlink:href="#DejaVuSans-30" x="190.869141"/>
       <use xlink:href="#DejaVuSans-30" x="254.492188"/>
      </g>
     </g>
    </g>
    <g id="xtick_5">
     <g id="line2d_5">
      <g>
       <use xlink:href="#m86c5e087d3" x="467.078804" y="312.24351" style="stroke: #000000; stroke-width: 0.8"/>
      </g>
     </g>
     <g id="text_5">
      <!-- 14000 -->
      <g transform="translate(451.172554 326.841947)scale(0.1 -0.1)">
       <defs>
        <path id="DejaVuSans-34" d="M 2419 4116  L 825 1625  L 2419 1625  L 2419 4116  z M 2253 4666  L 3047 4666  L 3047 1625  L 3713 1625  L 3713 1100  L 3047 1100  L 3047 0  L 2419 0  L 2419 1100  L 313 1100  L 313 1709  L 2253 4666  z " transform="scale(0.015625)"/>
       </defs>
       <use xlink:href="#DejaVuSans-31"/>
       <use xlink:href="#DejaVuSans-34" x="63.623047"/>
       <use xlink:href="#DejaVuSans-30" x="127.246094"/>
       <use xlink:href="#DejaVuSans-30" x="190.869141"/>
       <use xlink:href="#DejaVuSans-30" x="254.492188"/>
      </g>
     </g>
    </g>
    <g id="xtick_6">
     <g id="line2d_6">
      <g>
       <use xlink:href="#m86c5e087d3" x="551.683164" y="312.24351" style="stroke: #000000; stroke-width: 0.8"/>
      </g>
     </g>
     <g id="text_6">
      <!-- 16000 -->
      <g transform="translate(535.776914 326.841947)scale(0.1 -0.1)">
       <use xlink:href="#DejaVuSans-31"/>
       <use xlink:href="#DejaVuSans-36" x="63.623047"/>
       <use xlink:href="#DejaVuSans-30" x="127.246094"/>
       <use xlink:href="#DejaVuSans-30" x="190.869141"/>
       <use xlink:href="#DejaVuSans-30" x="254.492188"/>
      </g>
     </g>
    </g>
    <g id="text_7">
     <!-- N0 -->
     <g transform="translate(331.29375 340.520072)scale(0.1 -0.1)">
      <defs>
       <path id="DejaVuSans-4e" d="M 628 4666  L 1478 4666  L 3547 763  L 3547 4666  L 4159 4666  L 4159 0  L 3309 0  L 1241 3903  L 1241 0  L 628 0  L 628 4666  z " transform="scale(0.015625)"/>
      </defs>
      <use xlink:href="#DejaVuSans-4e"/>
      <use xlink:href="#DejaVuSans-30" x="74.804688"/>
     </g>
    </g>
   </g>
   <g id="matplotlib.axis_2">
    <g id="ytick_1">
     <g id="line2d_7">
      <defs>
       <path id="m22beb0f167" d="M 0 0  L -3.5 0  " style="stroke: #000000; stroke-width: 0.8"/>
      </defs>
      <g>
       <use xlink:href="#m22beb0f167" x="65.03149" y="312.24351" style="stroke: #000000; stroke-width: 0.8"/>
      </g>
     </g>
     <g id="text_8">
      <!-- 0.00000 -->
      <g transform="translate(16.678365 316.042729)scale(0.1 -0.1)">
       <defs>
        <path id="DejaVuSans-2e" d="M 684 794  L 1344 794  L 1344 0  L 684 0  L 684 794  z " transform="scale(0.015625)"/>
       </defs>
       <use xlink:href="#DejaVuSans-30"/>
       <use xlink:href="#DejaVuSans-2e" x="63.623047"/>
       <use xlink:href="#DejaVuSans-30" x="95.410156"/>
       <use xlink:href="#DejaVuSans-30" x="159.033203"/>
       <use xlink:href="#DejaVuSans-30" x="222.65625"/>
       <use xlink:href="#DejaVuSans-30" x="286.279297"/>
       <use xlink:href="#DejaVuSans-30" x="349.902344"/>
      </g>
     </g>
    </g>
    <g id="ytick_2">
     <g id="line2d_8">
      <g>
       <use xlink:href="#m22beb0f167" x="65.03149" y="251.786737" style="stroke: #000000; stroke-width: 0.8"/>
      </g>
     </g>
     <g id="text_9">
      <!-- 0.00005 -->
      <g transform="translate(16.678365 255.585956)scale(0.1 -0.1)">
       <defs>
        <path id="DejaVuSans-35" d="M 691 4666  L 3169 4666  L 3169 4134  L 1269 4134  L 1269 2991  Q 1406 3038 1543 3061  Q 1681 3084 1819 3084  Q 2600 3084 3056 2656  Q 3513 2228 3513 1497  Q 3513 744 3044 326  Q 2575 -91 1722 -91  Q 1428 -91 1123 -41  Q 819 9 494 109  L 494 744  Q 775 591 1075 516  Q 1375 441 1709 441  Q 2250 441 2565 725  Q 2881 1009 2881 1497  Q 2881 1984 2565 2268  Q 2250 2553 1709 2553  Q 1456 2553 1204 2497  Q 953 2441 691 2322  L 691 4666  z " transform="scale(0.015625)"/>
       </defs>
       <use xlink:href="#DejaVuSans-30"/>
       <use xlink:href="#DejaVuSans-2e" x="63.623047"/>
       <use xlink:href="#DejaVuSans-30" x="95.410156"/>
       <use xlink:href="#DejaVuSans-30" x="159.033203"/>
       <use xlink:href="#DejaVuSans-30" x="222.65625"/>
       <use xlink:href="#DejaVuSans-30" x="286.279297"/>
       <use xlink:href="#DejaVuSans-35" x="349.902344"/>
      </g>
     </g>
    </g>
    <g id="ytick_3">
     <g id="line2d_9">
      <g>
       <use xlink:href="#m22beb0f167" x="65.03149" y="191.329964" style="stroke: #000000; stroke-width: 0.8"/>
      </g>
     </g>
     <g id="text_10">
      <!-- 0.00010 -->
      <g transform="translate(16.678365 195.129183)scale(0.1 -0.1)">
       <use xlink:href="#DejaVuSans-30"/>
       <use xlink:href="#DejaVuSans-2e" x="63.623047"/>
       <use xlink:href="#DejaVuSans-30" x="95.410156"/>
       <use xlink:href="#DejaVuSans-30" x="159.033203"/>
       <use xlink:href="#DejaVuSans-30" x="222.65625"/>
       <use xlink:href="#DejaVuSans-31" x="286.279297"/>
       <use xlink:href="#DejaVuSans-30" x="349.902344"/>
      </g>
     </g>
    </g>
    <g id="ytick_4">
     <g id="line2d_10">
      <g>
       <use xlink:href="#m22beb0f167" x="65.03149" y="130.873191" style="stroke: #000000; stroke-width: 0.8"/>
      </g>
     </g>
     <g id="text_11">
      <!-- 0.00015 -->
      <g transform="translate(16.678365 134.672409)scale(0.1 -0.1)">
       <use xlink:href="#DejaVuSans-30"/>
       <use xlink:href="#DejaVuSans-2e" x="63.623047"/>
       <use xlink:href="#DejaVuSans-30" x="95.410156"/>
       <use xlink:href="#DejaVuSans-30" x="159.033203"/>
       <use xlink:href="#DejaVuSans-30" x="222.65625"/>
       <use xlink:href="#DejaVuSans-31" x="286.279297"/>
       <use xlink:href="#DejaVuSans-35" x="349.902344"/>
      </g>
     </g>
    </g>
    <g id="ytick_5">
     <g id="line2d_11">
      <g>
       <use xlink:href="#m22beb0f167" x="65.03149" y="70.416418" style="stroke: #000000; stroke-width: 0.8"/>
      </g>
     </g>
     <g id="text_12">
      <!-- 0.00020 -->
      <g transform="translate(16.678365 74.215636)scale(0.1 -0.1)">
       <use xlink:href="#DejaVuSans-30"/>
       <use xlink:href="#DejaVuSans-2e" x="63.623047"/>
       <use xlink:href="#DejaVuSans-30" x="95.410156"/>
       <use xlink:href="#DejaVuSans-30" x="159.033203"/>
       <use xlink:href="#DejaVuSans-30" x="222.65625"/>
       <use xlink:href="#DejaVuSans-32" x="286.279297"/>
       <use xlink:href="#DejaVuSans-30" x="349.902344"/>
      </g>
     </g>
    </g>
    <g id="ytick_6">
     <g id="line2d_12">
      <g>
       <use xlink:href="#m22beb0f167" x="65.03149" y="9.959644" style="stroke: #000000; stroke-width: 0.8"/>
      </g>
     </g>
     <g id="text_13">
      <!-- 0.00025 -->
      <g transform="translate(16.678365 13.758863)scale(0.1 -0.1)">
       <use xlink:href="#DejaVuSans-30"/>
       <use xlink:href="#DejaVuSans-2e" x="63.623047"/>
       <use xlink:href="#DejaVuSans-30" x="95.410156"/>
       <use xlink:href="#DejaVuSans-30" x="159.033203"/>
       <use xlink:href="#DejaVuSans-30" x="222.65625"/>
       <use xlink:href="#DejaVuSans-32" x="286.279297"/>
       <use xlink:href="#DejaVuSans-35" x="349.902344"/>
      </g>
     </g>
    </g>
    <g id="text_14">
     <!-- density -->
     <g transform="translate(10.598677 175.954687)rotate(-90)scale(0.1 -0.1)">
      <defs>
       <path id="DejaVuSans-64" d="M 2906 2969  L 2906 4863  L 3481 4863  L 3481 0  L 2906 0  L 2906 525  Q 2725 213 2448 61  Q 2172 -91 1784 -91  Q 1150 -91 751 415  Q 353 922 353 1747  Q 353 2572 751 3078  Q 1150 3584 1784 3584  Q 2172 3584 2448 3432  Q 2725 3281 2906 2969  z M 947 1747  Q 947 1113 1208 752  Q 1469 391 1925 391  Q 2381 391 2643 752  Q 2906 1113 2906 1747  Q 2906 2381 2643 2742  Q 2381 3103 1925 3103  Q 1469 3103 1208 2742  Q 947 2381 947 1747  z " transform="scale(0.015625)"/>
       <path id="DejaVuSans-65" d="M 3597 1894  L 3597 1613  L 953 1613  Q 991 1019 1311 708  Q 1631 397 2203 397  Q 2534 397 2845 478  Q 3156 559 3463 722  L 3463 178  Q 3153 47 2828 -22  Q 2503 -91 2169 -91  Q 1331 -91 842 396  Q 353 884 353 1716  Q 353 2575 817 3079  Q 1281 3584 2069 3584  Q 2775 3584 3186 3129  Q 3597 2675 3597 1894  z M 3022 2063  Q 3016 2534 2758 2815  Q 2500 3097 2075 3097  Q 1594 3097 1305 2825  Q 1016 2553 972 2059  L 3022 2063  z " transform="scale(0.015625)"/>
       <path id="DejaVuSans-6e" d="M 3513 2113  L 3513 0  L 2938 0  L 2938 2094  Q 2938 2591 2744 2837  Q 2550 3084 2163 3084  Q 1697 3084 1428 2787  Q 1159 2491 1159 1978  L 1159 0  L 581 0  L 581 3500  L 1159 3500  L 1159 2956  Q 1366 3272 1645 3428  Q 1925 3584 2291 3584  Q 2894 3584 3203 3211  Q 3513 2838 3513 2113  z " transform="scale(0.015625)"/>
       <path id="DejaVuSans-73" d="M 2834 3397  L 2834 2853  Q 2591 2978 2328 3040  Q 2066 3103 1784 3103  Q 1356 3103 1142 2972  Q 928 2841 928 2578  Q 928 2378 1081 2264  Q 1234 2150 1697 2047  L 1894 2003  Q 2506 1872 2764 1633  Q 3022 1394 3022 966  Q 3022 478 2636 193  Q 2250 -91 1575 -91  Q 1294 -91 989 -36  Q 684 19 347 128  L 347 722  Q 666 556 975 473  Q 1284 391 1588 391  Q 1994 391 2212 530  Q 2431 669 2431 922  Q 2431 1156 2273 1281  Q 2116 1406 1581 1522  L 1381 1569  Q 847 1681 609 1914  Q 372 2147 372 2553  Q 372 3047 722 3315  Q 1072 3584 1716 3584  Q 2034 3584 2315 3537  Q 2597 3491 2834 3397  z " transform="scale(0.015625)"/>
       <path id="DejaVuSans-69" d="M 603 3500  L 1178 3500  L 1178 0  L 603 0  L 603 3500  z M 603 4863  L 1178 4863  L 1178 4134  L 603 4134  L 603 4863  z " transform="scale(0.015625)"/>
       <path id="DejaVuSans-74" d="M 1172 4494  L 1172 3500  L 2356 3500  L 2356 3053  L 1172 3053  L 1172 1153  Q 1172 725 1289 603  Q 1406 481 1766 481  L 2356 481  L 2356 0  L 1766 0  Q 1100 0 847 248  Q 594 497 594 1153  L 594 3053  L 172 3053  L 172 3500  L 594 3500  L 594 4494  L 1172 4494  z " transform="scale(0.015625)"/>
       <path id="DejaVuSans-79" d="M 2059 -325  Q 1816 -950 1584 -1140  Q 1353 -1331 966 -1331  L 506 -1331  L 506 -850  L 844 -850  Q 1081 -850 1212 -737  Q 1344 -625 1503 -206  L 1606 56  L 191 3500  L 800 3500  L 1894 763  L 2988 3500  L 3597 3500  L 2059 -325  z " transform="scale(0.015625)"/>
      </defs>
      <use xlink:href="#DejaVuSans-64"/>
      <use xlink:href="#DejaVuSans-65" x="63.476562"/>
      <use xlink:href="#DejaVuSans-6e" x="125"/>
      <use xlink:href="#DejaVuSans-73" x="188.378906"/>
      <use xlink:href="#DejaVuSans-69" x="240.478516"/>
      <use xlink:href="#DejaVuSans-74" x="268.261719"/>
      <use xlink:href="#DejaVuSans-79" x="307.470703"/>
     </g>
    </g>
   </g>
   <g id="patch_3">
    <path d="M 112.443613 306.579714  L 121.474493 306.579714  L 121.474493 312.24351  L 130.505374 312.24351  L 130.505374 312.24351  L 139.536254 312.24351  L 139.536254 306.579714  L 148.567135 306.579714  L 148.567135 300.915918  L 157.598015 300.915918  L 157.598015 266.933141  L 166.628896 266.933141  L 166.628896 272.596937  L 175.659776 272.596937  L 175.659776 261.269345  L 184.690657 261.269345  L 184.690657 244.277956  L 193.721537 244.277956  L 193.721537 238.61416  L 202.752418 238.61416  L 202.752418 204.631383  L 211.783298 204.631383  L 211.783298 159.321014  L 220.814179 159.321014  L 220.814179 170.648606  L 229.845059 170.648606  L 229.845059 119.674441  L 238.87594 119.674441  L 238.87594 119.674441  L 247.90682 119.674441  L 247.90682 80.027868  L 256.937701 80.027868  L 256.937701 68.700275  L 265.968581 68.700275  L 265.968581 40.381295  L 274.999462 40.381295  L 274.999462 17.72611  L 284.030342 17.72611  L 284.030342 46.045091  L 293.061223 46.045091  L 293.061223 57.372683  L 302.092103 57.372683  L 302.092103 80.027868  L 311.122984 80.027868  L 311.122984 131.002033  L 320.153864 131.002033  L 320.153864 102.683052  L 329.184745 102.683052  L 329.184745 80.027868  L 338.215625 80.027868  L 338.215625 131.002033  L 347.246505 131.002033  L 347.246505 97.019256  L 356.277386 97.019256  L 356.277386 80.027868  L 365.308266 80.027868  L 365.308266 97.019256  L 374.339147 97.019256  L 374.339147 74.364072  L 383.370027 74.364072  L 383.370027 181.976198  L 392.400908 181.976198  L 392.400908 187.639995  L 401.431788 187.639995  L 401.431788 210.295179  L 410.462669 210.295179  L 410.462669 210.295179  L 419.493549 210.295179  L 419.493549 198.967587  L 428.52443 198.967587  L 428.52443 249.941752  L 437.55531 249.941752  L 437.55531 227.286568  L 446.586191 227.286568  L 446.586191 261.269345  L 455.617071 261.269345  L 455.617071 238.61416  L 464.647952 238.61416  L 464.647952 283.924529  L 473.678832 283.924529  L 473.678832 249.941752  L 482.709713 249.941752  L 482.709713 266.933141  L 491.740593 266.933141  L 491.740593 283.924529  L 500.771474 283.924529  L 500.771474 283.924529  L 509.802354 283.924529  L 509.802354 306.579714  L 518.833235 306.579714  L 518.833235 295.252122  L 527.864115 295.252122  L 527.864115 306.579714  L 536.894996 306.579714  L 536.894996 306.579714  L 545.925876 306.579714  L 545.925876 312.24351  L 554.956757 312.24351  L 554.956757 306.579714  L 563.987637 306.579714  " clip-path="url(#p71c1c03f14)" style="fill: none; stroke: #1f77b4; stroke-linejoin: miter"/>
   </g>
   <g id="line2d_13">
    <path d="M 89.866411 311.106259  L 98.815933 310.99667  L 106.771063 310.688548  L 112.73741 310.253049  L 117.212171 309.731495  L 121.189736 309.056394  L 124.670105 308.246003  L 127.653279 307.348746  L 130.636452 306.232294  L 133.619626 304.869581  L 136.6028 303.239208  L 139.585974 301.327452  L 142.569147 299.129681  L 145.552321 296.650915  L 148.535495 293.905375  L 152.015864 290.394623  L 155.993429 286.0302  L 160.46819 280.751918  L 165.440146 274.519961  L 170.412102 267.945438  L 175.384059 260.992904  L 179.858819 254.321973  L 183.836384 247.970992  L 187.316753 242.024999  L 190.797123 235.673509  L 194.277492 228.894939  L 198.255057 220.628036  L 202.232622 211.846358  L 206.707383 201.446604  L 212.67373 186.962315  L 223.114838 160.860133  L 236.53912 127.469263  L 243.997054 109.456339  L 249.466206 96.809745  L 253.443771 88.135769  L 256.924141 81.072953  L 259.907314 75.52599  L 262.393293 71.334421  L 264.879271 67.593168  L 266.868053 64.959006  L 268.856836 62.669391  L 270.845618 60.744334  L 272.834401 59.199626  L 274.325987 58.297455  L 275.817574 57.618078  L 277.309161 57.162279  L 278.800748 56.928952  L 280.292335 56.915069  L 281.783922 57.115681  L 283.275509 57.523948  L 284.767096 58.131215  L 286.755878 59.232282  L 288.744661 60.639535  L 290.733443 62.319642  L 293.219421 64.746924  L 296.202595 68.035927  L 300.18016 72.8268  L 308.632485 83.147656  L 312.112855 86.961304  L 315.096029 89.869091  L 317.582007 91.996991  L 320.067985 93.838276  L 322.553963 95.387854  L 325.039941 96.651028  L 327.525919 97.642253  L 330.011897 98.383814  L 332.497875 98.904591  L 335.481049 99.287008  L 338.961418 99.486997  L 349.899722 99.870057  L 352.3857 100.265208  L 354.871678 100.914971  L 356.860461 101.663713  L 358.849243 102.652136  L 360.838026 103.911056  L 362.826808 105.467597  L 364.815591 107.343972  L 366.804373 109.556365  L 368.793156 112.113947  L 370.781938 115.018148  L 372.770721 118.262204  L 375.256699 122.771482  L 377.742677 127.740735  L 380.725851 134.219156  L 384.20622 142.310987  L 391.166959 159.242635  L 396.138915 171.05363  L 399.619284 178.819994  L 403.099654 186.027303  L 406.082828 191.713214  L 409.066001 196.939958  L 412.049175 201.730108  L 415.032349 206.126055  L 418.512718 210.830258  L 421.993087 215.169184  L 426.467848 220.359433  L 431.937 226.323614  L 438.897739 233.560237  L 445.361282 239.983991  L 450.830434 245.13069  L 455.80239 249.516993  L 460.774346 253.601232  L 466.243498 257.777858  L 473.204237 262.777881  L 485.136932 271.319028  L 492.09767 276.605129  L 509.002321 289.614959  L 513.974278 293.049477  L 518.449038 295.859151  L 522.426603 298.112489  L 526.404168 300.134002  L 530.381733 301.931359  L 534.856494 303.700828  L 539.331254 305.221224  L 543.806015 306.510633  L 548.777971 307.693846  L 553.749928 308.640124  L 559.219079 309.444205  L 565.185427 310.088946  L 572.146166 310.600296  L 579.6041 310.914582  L 586.564839 311.009236  L 586.564839 311.009236  " clip-path="url(#p71c1c03f14)" style="fill: none; stroke: #00ffff; stroke-opacity: 0.7; stroke-width: 1.5; stroke-linecap: square"/>
   </g>
   <g id="patch_4">
    <path d="M 65.03149 312.24351  L 65.03149 3.00024  " style="fill: none; stroke: #000000; stroke-width: 0.8; stroke-linejoin: miter; stroke-linecap: square"/>
   </g>
   <g id="patch_5">
    <path d="M 611.39976 312.24351  L 611.39976 3.00024  " style="fill: none; stroke: #000000; stroke-width: 0.8; stroke-linejoin: miter; stroke-linecap: square"/>
   </g>
   <g id="patch_6">
    <path d="M 65.03149 312.24351  L 611.39976 312.24351  " style="fill: none; stroke: #000000; stroke-width: 0.8; stroke-linejoin: miter; stroke-linecap: square"/>
   </g>
   <g id="patch_7">
    <path d="M 65.03149 3.00024  L 611.39976 3.00024  " style="fill: none; stroke: #000000; stroke-width: 0.8; stroke-linejoin: miter; stroke-linecap: square"/>
   </g>
   <g id="line2d_14">
    <path d="M 297.870083 312.24351  L 297.870083 3.00024  " clip-path="url(#p71c1c03f14)" style="fill: none; stroke: #ff0000; stroke-opacity: 0.7; stroke-width: 1.5; stroke-linecap: square"/>
   </g>
   <g id="line2d_15">
    <path d="M 180.618073 265.857019  L 480.774215 265.857019  " clip-path="url(#p71c1c03f14)" style="fill: none; stroke: #000000; stroke-width: 3; stroke-linecap: square"/>
   </g>
   <g id="line2d_16">
    <path d="M 180.618073 268.949452  L 180.618073 262.764587  " clip-path="url(#p71c1c03f14)" style="fill: none; stroke: #000000; stroke-width: 3; stroke-linecap: square"/>
   </g>
   <g id="line2d_17">
    <path d="M 308.85239 268.949452  L 308.85239 262.764587  " clip-path="url(#p71c1c03f14)" style="fill: none; stroke: #000000; stroke-width: 3; stroke-linecap: square"/>
   </g>
   <g id="line2d_18">
    <path d="M 480.774215 268.949452  L 480.774215 262.764587  " clip-path="url(#p71c1c03f14)" style="fill: none; stroke: #000000; stroke-width: 3; stroke-linecap: square"/>
   </g>
   <g id="text_15">
    <g id="patch_8">
     <path d="M 180.618073 281.319183  L 206.02276 281.319183  Q 206.02276 281.319183 206.02276 281.319183  L 206.02276 271.641058  Q 206.02276 271.641058 206.02276 271.641058  L 180.618073 271.641058  Q 180.618073 271.641058 180.618073 271.641058  L 180.618073 281.319183  Q 180.618073 281.319183 180.618073 281.319183  z " style="fill: #ffffff; opacity: 0.6"/>
    </g>
    <!-- 2.5% -->
    <g transform="translate(180.618073 279.239495)scale(0.1 -0.1)">
     <defs>
      <path id="DejaVuSans-25" d="M 4653 2053  Q 4381 2053 4226 1822  Q 4072 1591 4072 1178  Q 4072 772 4226 539  Q 4381 306 4653 306  Q 4919 306 5073 539  Q 5228 772 5228 1178  Q 5228 1588 5073 1820  Q 4919 2053 4653 2053  z M 4653 2450  Q 5147 2450 5437 2106  Q 5728 1763 5728 1178  Q 5728 594 5436 251  Q 5144 -91 4653 -91  Q 4153 -91 3862 251  Q 3572 594 3572 1178  Q 3572 1766 3864 2108  Q 4156 2450 4653 2450  z M 1428 4353  Q 1159 4353 1004 4120  Q 850 3888 850 3481  Q 850 3069 1003 2837  Q 1156 2606 1428 2606  Q 1700 2606 1854 2837  Q 2009 3069 2009 3481  Q 2009 3884 1853 4118  Q 1697 4353 1428 4353  z M 4250 4750  L 4750 4750  L 1831 -91  L 1331 -91  L 4250 4750  z M 1428 4750  Q 1922 4750 2215 4408  Q 2509 4066 2509 3481  Q 2509 2891 2217 2550  Q 1925 2209 1428 2209  Q 931 2209 642 2551  Q 353 2894 353 3481  Q 353 4063 643 4406  Q 934 4750 1428 4750  z " transform="scale(0.015625)"/>
     </defs>
     <use xlink:href="#DejaVuSans-32"/>
     <use xlink:href="#DejaVuSans-2e" x="63.623047"/>
     <use xlink:href="#DejaVuSans-35" x="95.410156"/>
     <use xlink:href="#DejaVuSans-25" x="159.033203"/>
    </g>
   </g>
   <g id="text_16">
    <g id="patch_9">
     <path d="M 180.618073 259.672154  L 221.971198 259.672154  Q 221.971198 259.672154 221.971198 259.672154  L 221.971198 249.994029  Q 221.971198 249.994029 221.971198 249.994029  L 180.618073 249.994029  Q 180.618073 249.994029 180.618073 249.994029  L 180.618073 259.672154  Q 180.618073 259.672154 180.618073 259.672154  z " style="fill: #ffffff; opacity: 0.6"/>
    </g>
    <!-- 7228.23 -->
    <g transform="translate(180.618073 257.592467)scale(0.1 -0.1)">
     <defs>
      <path id="DejaVuSans-37" d="M 525 4666  L 3525 4666  L 3525 4397  L 1831 0  L 1172 0  L 2766 4134  L 525 4134  L 525 4666  z " transform="scale(0.015625)"/>
      <path id="DejaVuSans-33" d="M 2597 2516  Q 3050 2419 3304 2112  Q 3559 1806 3559 1356  Q 3559 666 3084 287  Q 2609 -91 1734 -91  Q 1441 -91 1130 -33  Q 819 25 488 141  L 488 750  Q 750 597 1062 519  Q 1375 441 1716 441  Q 2309 441 2620 675  Q 2931 909 2931 1356  Q 2931 1769 2642 2001  Q 2353 2234 1838 2234  L 1294 2234  L 1294 2753  L 1863 2753  Q 2328 2753 2575 2939  Q 2822 3125 2822 3475  Q 2822 3834 2567 4026  Q 2313 4219 1838 4219  Q 1578 4219 1281 4162  Q 984 4106 628 3988  L 628 4550  Q 988 4650 1302 4700  Q 1616 4750 1894 4750  Q 2613 4750 3031 4423  Q 3450 4097 3450 3541  Q 3450 3153 3228 2886  Q 3006 2619 2597 2516  z " transform="scale(0.015625)"/>
     </defs>
     <use xlink:href="#DejaVuSans-37"/>
     <use xlink:href="#DejaVuSans-32" x="63.623047"/>
     <use xlink:href="#DejaVuSans-32" x="127.246094"/>
     <use xlink:href="#DejaVuSans-38" x="190.869141"/>
     <use xlink:href="#DejaVuSans-2e" x="254.492188"/>
     <use xlink:href="#DejaVuSans-32" x="286.279297"/>
     <use xlink:href="#DejaVuSans-33" x="349.902344"/>
    </g>
   </g>
   <g id="text_17">
    <g id="patch_10">
     <path d="M 308.85239 281.319183  L 331.078952 281.319183  Q 331.078952 281.319183 331.078952 281.319183  L 331.078952 271.641058  Q 331.078952 271.641058 331.078952 271.641058  L 308.85239 271.641058  Q 308.85239 271.641058 308.85239 271.641058  L 308.85239 281.319183  Q 308.85239 281.319183 308.85239 281.319183  z " style="fill: #ffffff; opacity: 0.6"/>
    </g>
    <!-- 50% -->
    <g transform="translate(308.85239 279.239495)scale(0.1 -0.1)">
     <use xlink:href="#DejaVuSans-35"/>
     <use xlink:href="#DejaVuSans-30" x="63.623047"/>
     <use xlink:href="#DejaVuSans-25" x="127.246094"/>
    </g>
   </g>
   <g id="text_18">
    <g id="patch_11">
     <path d="M 308.85239 259.672154  L 350.205515 259.672154  Q 350.205515 259.672154 350.205515 259.672154  L 350.205515 249.994029  Q 350.205515 249.994029 350.205515 249.994029  L 308.85239 249.994029  Q 308.85239 249.994029 308.85239 249.994029  L 308.85239 259.672154  Q 308.85239 259.672154 308.85239 259.672154  z " style="fill: #ffffff; opacity: 0.6"/>
    </g>
    <!-- 10259.6 -->
    <g transform="translate(308.85239 257.592467)scale(0.1 -0.1)">
     <defs>
      <path id="DejaVuSans-39" d="M 703 97  L 703 672  Q 941 559 1184 500  Q 1428 441 1663 441  Q 2288 441 2617 861  Q 2947 1281 2994 2138  Q 2813 1869 2534 1725  Q 2256 1581 1919 1581  Q 1219 1581 811 2004  Q 403 2428 403 3163  Q 403 3881 828 4315  Q 1253 4750 1959 4750  Q 2769 4750 3195 4129  Q 3622 3509 3622 2328  Q 3622 1225 3098 567  Q 2575 -91 1691 -91  Q 1453 -91 1209 -44  Q 966 3 703 97  z M 1959 2075  Q 2384 2075 2632 2365  Q 2881 2656 2881 3163  Q 2881 3666 2632 3958  Q 2384 4250 1959 4250  Q 1534 4250 1286 3958  Q 1038 3666 1038 3163  Q 1038 2656 1286 2365  Q 1534 2075 1959 2075  z " transform="scale(0.015625)"/>
     </defs>
     <use xlink:href="#DejaVuSans-31"/>
     <use xlink:href="#DejaVuSans-30" x="63.623047"/>
     <use xlink:href="#DejaVuSans-32" x="127.246094"/>
     <use xlink:href="#DejaVuSans-35" x="190.869141"/>
     <use xlink:href="#DejaVuSans-39" x="254.492188"/>
     <use xlink:href="#DejaVuSans-2e" x="318.115234"/>
     <use xlink:href="#DejaVuSans-36" x="349.902344"/>
    </g>
   </g>
   <g id="text_19">
    <g id="patch_12">
     <path d="M 480.774215 281.319183  L 512.541402 281.319183  Q 512.541402 281.319183 512.541402 281.319183  L 512.541402 271.641058  Q 512.541402 271.641058 512.541402 271.641058  L 480.774215 271.641058  Q 480.774215 271.641058 480.774215 271.641058  L 480.774215 281.319183  Q 480.774215 281.319183 480.774215 281.319183  z " style="fill: #ffffff; opacity: 0.6"/>
    </g>
    <!-- 97.5% -->
    <g transform="translate(480.774215 279.239495)scale(0.1 -0.1)">
     <use xlink:href="#DejaVuSans-39"/>
     <use xlink:href="#DejaVuSans-37" x="63.623047"/>
     <use xlink:href="#DejaVuSans-2e" x="127.246094"/>
     <use xlink:href="#DejaVuSans-35" x="159.033203"/>
     <use xlink:href="#DejaVuSans-25" x="222.65625"/>
    </g>
   </g>
   <g id="text_20">
    <g id="patch_13">
     <path d="M 480.774215 259.672154  L 522.12734 259.672154  Q 522.12734 259.672154 522.12734 259.672154  L 522.12734 249.994029  Q 522.12734 249.994029 522.12734 249.994029  L 480.774215 249.994029  Q 480.774215 249.994029 480.774215 249.994029  L 480.774215 259.672154  Q 480.774215 259.672154 480.774215 259.672154  z " style="fill: #ffffff; opacity: 0.6"/>
    </g>
    <!-- 14323.8 -->
    <g transform="translate(480.774215 257.592467)scale(0.1 -0.1)">
     <use xlink:href="#DejaVuSans-31"/>
     <use xlink:href="#DejaVuSans-34" x="63.623047"/>
     <use xlink:href="#DejaVuSans-33" x="127.246094"/>
     <use xlink:href="#DejaVuSans-32" x="190.869141"/>
     <use xlink:href="#DejaVuSans-33" x="254.492188"/>
     <use xlink:href="#DejaVuSans-2e" x="318.115234"/>
     <use xlink:href="#DejaVuSans-38" x="349.902344"/>
    </g>
   </g>
  </g>
 </g>
 <defs>
  <clipPath id="p71c1c03f14">
   <rect x="65.03149" y="3.00024" width="546.36827" height="309.24327"/>
  </clipPath>
 </defs>
</svg>