<?xml version="1.0" encoding="utf-8" standalone="no"?>
<!DOCTYPE svg PUBLIC "-//W3C//DTD SVG 1.1//EN"
  "http://www.w3.org/Graphics/SVG/1.1/DTD/svg11.dtd">
<svg xmlns:xlink="http://www.w3.org/1999/xlink" width="559.729134pt" height="559.729134pt" viewBox="0 0 559.729134 559.729134" xmlns="http://www.w3.org/2000/svg" version="1.1">
 <metadata>
  <rdf:RDF xmlns:dc="http://purl.org/dc/elements/1.1/" xmlns:cc="http://creativecommons.org/ns#" xmlns:rdf="http://www.w3.org/1999/02/22-rdf-syntax-ns#">
   <cc:Work>
    <dc:type rdf:resource="http://purl.org/dc/dcmitype/StillImage"/>
    <dc:date>2022-07-05T19:41:48.419939</dc:date>
    <dc:format>image/svg+xml</dc:format>
    <dc:creator>
     <cc:Agent>
      <dc:title>Matplotlib v3.5.2, https://matplotlib.org/</dc:title>
     </cc:Agent>
    </dc:creator>
   </cc:Work>
  </rdf:RDF>
 </metadata>
 <defs>
  <style type="text/css">*{stroke-linejoin: round; stroke-linecap: butt}</style>
 </defs>
 <g id="figure_1">
  <g id="patch_1">
   <path d="M 0 559.729134 
L 559.729134 559.729134 
L 559.729134 0 
L 0 0 
L 0 559.729134 
z
" style="fill: none"/>
  </g>
  <g id="axes_1">
   <g id="patch_2">
    <path d="M 50.14375 257.536442 
L 294.186442 257.536442 
L 294.186442 22.318125 
L 50.14375 22.318125 
z
" style="fill: #ffffff"/>
   </g>
   <g id="matplotlib.axis_1">
    <g id="xtick_1">
     <g id="line2d_1">
      <defs>
       <path id="mdb6e50aa95" d="M 0 0 
L 0 3.5 
" style="stroke: #000000; stroke-width: 0.8"/>
      </defs>
      <g>
       <use xlink:href="#mdb6e50aa95" x="107.943335" y="257.536442" style="stroke: #000000; stroke-width: 0.8"/>
      </g>
     </g>
    </g>
    <g id="xtick_2">
     <g id="line2d_2">
      <g>
       <use xlink:href="#mdb6e50aa95" x="166.326754" y="257.536442" style="stroke: #000000; stroke-width: 0.8"/>
      </g>
     </g>
    </g>
    <g id="xtick_3">
     <g id="line2d_3">
      <g>
       <use xlink:href="#mdb6e50aa95" x="224.710173" y="257.536442" style="stroke: #000000; stroke-width: 0.8"/>
      </g>
     </g>
    </g>
    <g id="xtick_4">
     <g id="line2d_4">
      <g>
       <use xlink:href="#mdb6e50aa95" x="283.093592" y="257.536442" style="stroke: #000000; stroke-width: 0.8"/>
      </g>
     </g>
    </g>
   </g>
   <g id="matplotlib.axis_2">
    <g id="ytick_1">
     <g id="line2d_5">
      <defs>
       <path id="mabbc30672e" d="M 0 0 
L -3.5 0 
" style="stroke: #000000; stroke-width: 0.8"/>
      </defs>
      <g>
       <use xlink:href="#mabbc30672e" x="50.14375" y="247.760571" style="stroke: #000000; stroke-width: 0.8"/>
      </g>
     </g>
     <g id="text_1">
      <!-- 0.0 -->
      <g transform="translate(27.240625 251.55979)scale(0.1 -0.1)">
       <defs>
        <path id="DejaVuSans-30" d="M 2034 4250 
Q 1547 4250 1301 3770 
Q 1056 3291 1056 2328 
Q 1056 1369 1301 889 
Q 1547 409 2034 409 
Q 2525 409 2770 889 
Q 3016 1369 3016 2328 
Q 3016 3291 2770 3770 
Q 2525 4250 2034 4250 
z
M 2034 4750 
Q 2819 4750 3233 4129 
Q 3647 3509 3647 2328 
Q 3647 1150 3233 529 
Q 2819 -91 2034 -91 
Q 1250 -91 836 529 
Q 422 1150 422 2328 
Q 422 3509 836 4129 
Q 1250 4750 2034 4750 
z
" transform="scale(0.015625)"/>
        <path id="DejaVuSans-2e" d="M 684 794 
L 1344 794 
L 1344 0 
L 684 0 
L 684 794 
z
" transform="scale(0.015625)"/>
       </defs>
       <use xlink:href="#DejaVuSans-30"/>
       <use xlink:href="#DejaVuSans-2e" x="63.623047"/>
       <use xlink:href="#DejaVuSans-30" x="95.410156"/>
      </g>
     </g>
    </g>
    <g id="ytick_2">
     <g id="line2d_6">
      <g>
       <use xlink:href="#mabbc30672e" x="50.14375" y="205.59843" style="stroke: #000000; stroke-width: 0.8"/>
      </g>
     </g>
     <g id="text_2">
      <!-- 0.1 -->
      <g transform="translate(27.240625 209.397649)scale(0.1 -0.1)">
       <defs>
        <path id="DejaVuSans-31" d="M 794 531 
L 1825 531 
L 1825 4091 
L 703 3866 
L 703 4441 
L 1819 4666 
L 2450 4666 
L 2450 531 
L 3481 531 
L 3481 0 
L 794 0 
L 794 531 
z
" transform="scale(0.015625)"/>
       </defs>
       <use xlink:href="#DejaVuSans-30"/>
       <use xlink:href="#DejaVuSans-2e" x="63.623047"/>
       <use xlink:href="#DejaVuSans-31" x="95.410156"/>
      </g>
     </g>
    </g>
    <g id="ytick_3">
     <g id="line2d_7">
      <g>
       <use xlink:href="#mabbc30672e" x="50.14375" y="163.436289" style="stroke: #000000; stroke-width: 0.8"/>
      </g>
     </g>
     <g id="text_3">
      <!-- 0.2 -->
      <g transform="translate(27.240625 167.235508)scale(0.1 -0.1)">
       <defs>
        <path id="DejaVuSans-32" d="M 1228 531 
L 3431 531 
L 3431 0 
L 469 0 
L 469 531 
Q 828 903 1448 1529 
Q 2069 2156 2228 2338 
Q 2531 2678 2651 2914 
Q 2772 3150 2772 3378 
Q 2772 3750 2511 3984 
Q 2250 4219 1831 4219 
Q 1534 4219 1204 4116 
Q 875 4013 500 3803 
L 500 4441 
Q 881 4594 1212 4672 
Q 1544 4750 1819 4750 
Q 2544 4750 2975 4387 
Q 3406 4025 3406 3419 
Q 3406 3131 3298 2873 
Q 3191 2616 2906 2266 
Q 2828 2175 2409 1742 
Q 1991 1309 1228 531 
z
" transform="scale(0.015625)"/>
       </defs>
       <use xlink:href="#DejaVuSans-30"/>
       <use xlink:href="#DejaVuSans-2e" x="63.623047"/>
       <use xlink:href="#DejaVuSans-32" x="95.410156"/>
      </g>
     </g>
    </g>
    <g id="ytick_4">
     <g id="line2d_8">
      <g>
       <use xlink:href="#mabbc30672e" x="50.14375" y="121.274148" style="stroke: #000000; stroke-width: 0.8"/>
      </g>
     </g>
     <g id="text_4">
      <!-- 0.3 -->
      <g transform="translate(27.240625 125.073367)scale(0.1 -0.1)">
       <defs>
        <path id="DejaVuSans-33" d="M 2597 2516 
Q 3050 2419 3304 2112 
Q 3559 1806 3559 1356 
Q 3559 666 3084 287 
Q 2609 -91 1734 -91 
Q 1441 -91 1130 -33 
Q 819 25 488 141 
L 488 750 
Q 750 597 1062 519 
Q 1375 441 1716 441 
Q 2309 441 2620 675 
Q 2931 909 2931 1356 
Q 2931 1769 2642 2001 
Q 2353 2234 1838 2234 
L 1294 2234 
L 1294 2753 
L 1863 2753 
Q 2328 2753 2575 2939 
Q 2822 3125 2822 3475 
Q 2822 3834 2567 4026 
Q 2313 4219 1838 4219 
Q 1578 4219 1281 4162 
Q 984 4106 628 3988 
L 628 4550 
Q 988 4650 1302 4700 
Q 1616 4750 1894 4750 
Q 2613 4750 3031 4423 
Q 3450 4097 3450 3541 
Q 3450 3153 3228 2886 
Q 3006 2619 2597 2516 
z
" transform="scale(0.015625)"/>
       </defs>
       <use xlink:href="#DejaVuSans-30"/>
       <use xlink:href="#DejaVuSans-2e" x="63.623047"/>
       <use xlink:href="#DejaVuSans-33" x="95.410156"/>
      </g>
     </g>
    </g>
    <g id="ytick_5">
     <g id="line2d_9">
      <g>
       <use xlink:href="#mabbc30672e" x="50.14375" y="79.112007" style="stroke: #000000; stroke-width: 0.8"/>
      </g>
     </g>
     <g id="text_5">
      <!-- 0.4 -->
      <g transform="translate(27.240625 82.911226)scale(0.1 -0.1)">
       <defs>
        <path id="DejaVuSans-34" d="M 2419 4116 
L 825 1625 
L 2419 1625 
L 2419 4116 
z
M 2253 4666 
L 3047 4666 
L 3047 1625 
L 3713 1625 
L 3713 1100 
L 3047 1100 
L 3047 0 
L 2419 0 
L 2419 1100 
L 313 1100 
L 313 1709 
L 2253 4666 
z
" transform="scale(0.015625)"/>
       </defs>
       <use xlink:href="#DejaVuSans-30"/>
       <use xlink:href="#DejaVuSans-2e" x="63.623047"/>
       <use xlink:href="#DejaVuSans-34" x="95.410156"/>
      </g>
     </g>
    </g>
    <g id="ytick_6">
     <g id="line2d_10">
      <g>
       <use xlink:href="#mabbc30672e" x="50.14375" y="36.949866" style="stroke: #000000; stroke-width: 0.8"/>
      </g>
     </g>
     <g id="text_6">
      <!-- 0.5 -->
      <g transform="translate(27.240625 40.749085)scale(0.1 -0.1)">
       <defs>
        <path id="DejaVuSans-35" d="M 691 4666 
L 3169 4666 
L 3169 4134 
L 1269 4134 
L 1269 2991 
Q 1406 3038 1543 3061 
Q 1681 3084 1819 3084 
Q 2600 3084 3056 2656 
Q 3513 2228 3513 1497 
Q 3513 744 3044 326 
Q 2575 -91 1722 -91 
Q 1428 -91 1123 -41 
Q 819 9 494 109 
L 494 744 
Q 775 591 1075 516 
Q 1375 441 1709 441 
Q 2250 441 2565 725 
Q 2881 1009 2881 1497 
Q 2881 1984 2565 2268 
Q 2250 2553 1709 2553 
Q 1456 2553 1204 2497 
Q 953 2441 691 2322 
L 691 4666 
z
" transform="scale(0.015625)"/>
       </defs>
       <use xlink:href="#DejaVuSans-30"/>
       <use xlink:href="#DejaVuSans-2e" x="63.623047"/>
       <use xlink:href="#DejaVuSans-35" x="95.410156"/>
      </g>
     </g>
    </g>
    <g id="text_7">
     <!-- loss -->
     <g transform="translate(21.160938 149.585096)rotate(-90)scale(0.1 -0.1)">
      <defs>
       <path id="DejaVuSans-6c" d="M 603 4863 
L 1178 4863 
L 1178 0 
L 603 0 
L 603 4863 
z
" transform="scale(0.015625)"/>
       <path id="DejaVuSans-6f" d="M 1959 3097 
Q 1497 3097 1228 2736 
Q 959 2375 959 1747 
Q 959 1119 1226 758 
Q 1494 397 1959 397 
Q 2419 397 2687 759 
Q 2956 1122 2956 1747 
Q 2956 2369 2687 2733 
Q 2419 3097 1959 3097 
z
M 1959 3584 
Q 2709 3584 3137 3096 
Q 3566 2609 3566 1747 
Q 3566 888 3137 398 
Q 2709 -91 1959 -91 
Q 1206 -91 779 398 
Q 353 888 353 1747 
Q 353 2609 779 3096 
Q 1206 3584 1959 3584 
z
" transform="scale(0.015625)"/>
       <path id="DejaVuSans-73" d="M 2834 3397 
L 2834 2853 
Q 2591 2978 2328 3040 
Q 2066 3103 1784 3103 
Q 1356 3103 1142 2972 
Q 928 2841 928 2578 
Q 928 2378 1081 2264 
Q 1234 2150 1697 2047 
L 1894 2003 
Q 2506 1872 2764 1633 
Q 3022 1394 3022 966 
Q 3022 478 2636 193 
Q 2250 -91 1575 -91 
Q 1294 -91 989 -36 
Q 684 19 347 128 
L 347 722 
Q 666 556 975 473 
Q 1284 391 1588 391 
Q 1994 391 2212 530 
Q 2431 669 2431 922 
Q 2431 1156 2273 1281 
Q 2116 1406 1581 1522 
L 1381 1569 
Q 847 1681 609 1914 
Q 372 2147 372 2553 
Q 372 3047 722 3315 
Q 1072 3584 1716 3584 
Q 2034 3584 2315 3537 
Q 2597 3491 2834 3397 
z
" transform="scale(0.015625)"/>
      </defs>
      <use xlink:href="#DejaVuSans-6c"/>
      <use xlink:href="#DejaVuSans-6f" x="27.783203"/>
      <use xlink:href="#DejaVuSans-73" x="88.964844"/>
      <use xlink:href="#DejaVuSans-73" x="141.064453"/>
     </g>
    </g>
   </g>
   <g id="line2d_11">
    <path d="M 61.2366 136.109588 
L 72.913283 192.440054 
L 84.589967 208.865049 
L 96.266651 221.942231 
L 107.943335 227.034346 
L 119.620019 231.469078 
L 131.296703 235.432445 
L 142.973386 237.617837 
L 154.65007 237.224537 
L 166.326754 241.21395 
L 178.003438 242.575104 
L 189.680122 243.001715 
L 201.356806 242.568116 
L 213.033489 241.059187 
L 224.710173 242.210262 
L 236.386857 244.911582 
L 248.063541 245.593902 
L 259.740225 245.559262 
L 271.416908 242.026351 
L 283.093592 242.667139 
" clip-path="url(#pd629506aec)" style="fill: none; stroke: #1f77b4; stroke-width: 1.5; stroke-linecap: square"/>
   </g>
   <g id="line2d_12">
    <path d="M 61.2366 148.104069 
L 72.913283 207.807418 
L 84.589967 221.275218 
L 96.266651 230.348358 
L 107.943335 233.747896 
L 119.620019 237.144453 
L 131.296703 239.665602 
L 142.973386 241.929441 
L 154.65007 241.962823 
L 166.326754 241.725527 
L 178.003438 243.397623 
L 189.680122 244.9177 
L 201.356806 244.213785 
L 213.033489 245.610793 
L 224.710173 245.904131 
L 236.386857 246.469232 
L 248.063541 243.755786 
L 259.740225 246.007952 
L 271.416908 246.445127 
L 283.093592 246.8447 
" clip-path="url(#pd629506aec)" style="fill: none; stroke: #ff7f0e; stroke-width: 1.5; stroke-linecap: square"/>
   </g>
   <g id="line2d_13">
    <path d="M 61.2366 157.076545 
L 72.913283 211.227799 
L 84.589967 225.089863 
L 96.266651 232.452218 
L 107.943335 236.068099 
L 119.620019 239.637419 
L 131.296703 241.374032 
L 142.973386 243.796682 
L 154.65007 244.536405 
L 166.326754 244.978941 
L 178.003438 244.815433 
L 189.680122 246.08277 
L 201.356806 246.214113 
L 213.033489 244.446393 
L 224.710173 244.334044 
L 236.386857 246.052938 
L 248.063541 246.49081 
L 259.740225 244.240429 
L 271.416908 246.246239 
L 283.093592 246.681769 
" clip-path="url(#pd629506aec)" style="fill: none; stroke: #2ca02c; stroke-width: 1.5; stroke-linecap: square"/>
   </g>
   <g id="line2d_14">
    <path d="M 61.2366 158.939903 
L 72.913283 214.279121 
L 84.589967 228.043021 
L 96.266651 233.486612 
L 107.943335 237.382017 
L 119.620019 239.472766 
L 131.296703 241.747254 
L 142.973386 243.13721 
L 154.65007 239.984981 
L 166.326754 243.47253 
L 178.003438 245.483661 
L 189.680122 245.875681 
L 201.356806 245.991384 
L 213.033489 245.426789 
L 224.710173 246.131815 
L 236.386857 246.005548 
L 248.063541 245.493802 
L 259.740225 246.661455 
L 271.416908 246.140261 
L 283.093592 246.569935 
" clip-path="url(#pd629506aec)" style="fill: none; stroke: #d62728; stroke-width: 1.5; stroke-linecap: square"/>
   </g>
   <g id="line2d_15">
    <path d="M 61.2366 155.433991 
L 72.913283 211.162029 
L 84.589967 225.207906 
L 96.266651 232.440446 
L 107.943335 235.440159 
L 119.620019 239.150975 
L 131.296703 241.146321 
L 142.973386 241.325146 
L 154.65007 242.300122 
L 166.326754 244.00439 
L 178.003438 242.699678 
L 189.680122 244.450157 
L 201.356806 246.180788 
L 213.033489 246.470404 
L 224.710173 245.405 
L 236.386857 245.720411 
L 248.063541 245.660065 
L 259.740225 245.100599 
L 271.416908 246.661655 
L 283.093592 246.703259 
" clip-path="url(#pd629506aec)" style="fill: none; stroke: #9467bd; stroke-width: 1.5; stroke-linecap: square"/>
   </g>
   <g id="patch_3">
    <path d="M 50.14375 257.536442 
L 50.14375 22.318125 
" style="fill: none; stroke: #000000; stroke-width: 0.8; stroke-linejoin: miter; stroke-linecap: square"/>
   </g>
   <g id="patch_4">
    <path d="M 294.186442 257.536442 
L 294.186442 22.318125 
" style="fill: none; stroke: #000000; stroke-width: 0.8; stroke-linejoin: miter; stroke-linecap: square"/>
   </g>
   <g id="patch_5">
    <path d="M 50.14375 257.536442 
L 294.186442 257.536442 
" style="fill: none; stroke: #000000; stroke-width: 0.8; stroke-linejoin: miter; stroke-linecap: square"/>
   </g>
   <g id="patch_6">
    <path d="M 50.14375 22.318125 
L 294.186442 22.318125 
" style="fill: none; stroke: #000000; stroke-width: 0.8; stroke-linejoin: miter; stroke-linecap: square"/>
   </g>
   <g id="text_8">
    <!-- train_loss -->
    <g transform="translate(143.610721 16.318125)scale(0.12 -0.12)">
     <defs>
      <path id="DejaVuSans-74" d="M 1172 4494 
L 1172 3500 
L 2356 3500 
L 2356 3053 
L 1172 3053 
L 1172 1153 
Q 1172 725 1289 603 
Q 1406 481 1766 481 
L 2356 481 
L 2356 0 
L 1766 0 
Q 1100 0 847 248 
Q 594 497 594 1153 
L 594 3053 
L 172 3053 
L 172 3500 
L 594 3500 
L 594 4494 
L 1172 4494 
z
" transform="scale(0.015625)"/>
      <path id="DejaVuSans-72" d="M 2631 2963 
Q 2534 3019 2420 3045 
Q 2306 3072 2169 3072 
Q 1681 3072 1420 2755 
Q 1159 2438 1159 1844 
L 1159 0 
L 581 0 
L 581 3500 
L 1159 3500 
L 1159 2956 
Q 1341 3275 1631 3429 
Q 1922 3584 2338 3584 
Q 2397 3584 2469 3576 
Q 2541 3569 2628 3553 
L 2631 2963 
z
" transform="scale(0.015625)"/>
      <path id="DejaVuSans-61" d="M 2194 1759 
Q 1497 1759 1228 1600 
Q 959 1441 959 1056 
Q 959 750 1161 570 
Q 1363 391 1709 391 
Q 2188 391 2477 730 
Q 2766 1069 2766 1631 
L 2766 1759 
L 2194 1759 
z
M 3341 1997 
L 3341 0 
L 2766 0 
L 2766 531 
Q 2569 213 2275 61 
Q 1981 -91 1556 -91 
Q 1019 -91 701 211 
Q 384 513 384 1019 
Q 384 1609 779 1909 
Q 1175 2209 1959 2209 
L 2766 2209 
L 2766 2266 
Q 2766 2663 2505 2880 
Q 2244 3097 1772 3097 
Q 1472 3097 1187 3025 
Q 903 2953 641 2809 
L 641 3341 
Q 956 3463 1253 3523 
Q 1550 3584 1831 3584 
Q 2591 3584 2966 3190 
Q 3341 2797 3341 1997 
z
" transform="scale(0.015625)"/>
      <path id="DejaVuSans-69" d="M 603 3500 
L 1178 3500 
L 1178 0 
L 603 0 
L 603 3500 
z
M 603 4863 
L 1178 4863 
L 1178 4134 
L 603 4134 
L 603 4863 
z
" transform="scale(0.015625)"/>
      <path id="DejaVuSans-6e" d="M 3513 2113 
L 3513 0 
L 2938 0 
L 2938 2094 
Q 2938 2591 2744 2837 
Q 2550 3084 2163 3084 
Q 1697 3084 1428 2787 
Q 1159 2491 1159 1978 
L 1159 0 
L 581 0 
L 581 3500 
L 1159 3500 
L 1159 2956 
Q 1366 3272 1645 3428 
Q 1925 3584 2291 3584 
Q 2894 3584 3203 3211 
Q 3513 2838 3513 2113 
z
" transform="scale(0.015625)"/>
      <path id="DejaVuSans-5f" d="M 3263 -1063 
L 3263 -1509 
L -63 -1509 
L -63 -1063 
L 3263 -1063 
z
" transform="scale(0.015625)"/>
     </defs>
     <use xlink:href="#DejaVuSans-74"/>
     <use xlink:href="#DejaVuSans-72" x="39.208984"/>
     <use xlink:href="#DejaVuSans-61" x="80.322266"/>
     <use xlink:href="#DejaVuSans-69" x="141.601562"/>
     <use xlink:href="#DejaVuSans-6e" x="169.384766"/>
     <use xlink:href="#DejaVuSans-5f" x="232.763672"/>
     <use xlink:href="#DejaVuSans-6c" x="282.763672"/>
     <use xlink:href="#DejaVuSans-6f" x="310.546875"/>
     <use xlink:href="#DejaVuSans-73" x="371.728516"/>
     <use xlink:href="#DejaVuSans-73" x="423.828125"/>
    </g>
   </g>
   <g id="legend_1">
    <g id="patch_7">
     <path d="M 202.030192 118.665 
L 287.186442 118.665 
Q 289.186442 118.665 289.186442 116.665 
L 289.186442 29.318125 
Q 289.186442 27.318125 287.186442 27.318125 
L 202.030192 27.318125 
Q 200.030192 27.318125 200.030192 29.318125 
L 200.030192 116.665 
Q 200.030192 118.665 202.030192 118.665 
z
" style="fill: #ffffff; opacity: 0.8; stroke: #cccccc; stroke-linejoin: miter"/>
    </g>
    <g id="text_9">
     <!-- num_individuals -->
     <g transform="translate(204.030192 38.916563)scale(0.1 -0.1)">
      <defs>
       <path id="DejaVuSans-75" d="M 544 1381 
L 544 3500 
L 1119 3500 
L 1119 1403 
Q 1119 906 1312 657 
Q 1506 409 1894 409 
Q 2359 409 2629 706 
Q 2900 1003 2900 1516 
L 2900 3500 
L 3475 3500 
L 3475 0 
L 2900 0 
L 2900 538 
Q 2691 219 2414 64 
Q 2138 -91 1772 -91 
Q 1169 -91 856 284 
Q 544 659 544 1381 
z
M 1991 3584 
L 1991 3584 
z
" transform="scale(0.015625)"/>
       <path id="DejaVuSans-6d" d="M 3328 2828 
Q 3544 3216 3844 3400 
Q 4144 3584 4550 3584 
Q 5097 3584 5394 3201 
Q 5691 2819 5691 2113 
L 5691 0 
L 5113 0 
L 5113 2094 
Q 5113 2597 4934 2840 
Q 4756 3084 4391 3084 
Q 3944 3084 3684 2787 
Q 3425 2491 3425 1978 
L 3425 0 
L 2847 0 
L 2847 2094 
Q 2847 2600 2669 2842 
Q 2491 3084 2119 3084 
Q 1678 3084 1418 2786 
Q 1159 2488 1159 1978 
L 1159 0 
L 581 0 
L 581 3500 
L 1159 3500 
L 1159 2956 
Q 1356 3278 1631 3431 
Q 1906 3584 2284 3584 
Q 2666 3584 2933 3390 
Q 3200 3197 3328 2828 
z
" transform="scale(0.015625)"/>
       <path id="DejaVuSans-64" d="M 2906 2969 
L 2906 4863 
L 3481 4863 
L 3481 0 
L 2906 0 
L 2906 525 
Q 2725 213 2448 61 
Q 2172 -91 1784 -91 
Q 1150 -91 751 415 
Q 353 922 353 1747 
Q 353 2572 751 3078 
Q 1150 3584 1784 3584 
Q 2172 3584 2448 3432 
Q 2725 3281 2906 2969 
z
M 947 1747 
Q 947 1113 1208 752 
Q 1469 391 1925 391 
Q 2381 391 2643 752 
Q 2906 1113 2906 1747 
Q 2906 2381 2643 2742 
Q 2381 3103 1925 3103 
Q 1469 3103 1208 2742 
Q 947 2381 947 1747 
z
" transform="scale(0.015625)"/>
       <path id="DejaVuSans-76" d="M 191 3500 
L 800 3500 
L 1894 563 
L 2988 3500 
L 3597 3500 
L 2284 0 
L 1503 0 
L 191 3500 
z
" transform="scale(0.015625)"/>
      </defs>
      <use xlink:href="#DejaVuSans-6e"/>
      <use xlink:href="#DejaVuSans-75" x="63.378906"/>
      <use xlink:href="#DejaVuSans-6d" x="126.757812"/>
      <use xlink:href="#DejaVuSans-5f" x="224.169922"/>
      <use xlink:href="#DejaVuSans-69" x="274.169922"/>
      <use xlink:href="#DejaVuSans-6e" x="301.953125"/>
      <use xlink:href="#DejaVuSans-64" x="365.332031"/>
      <use xlink:href="#DejaVuSans-69" x="428.808594"/>
      <use xlink:href="#DejaVuSans-76" x="456.591797"/>
      <use xlink:href="#DejaVuSans-69" x="515.771484"/>
      <use xlink:href="#DejaVuSans-64" x="543.554688"/>
      <use xlink:href="#DejaVuSans-75" x="607.03125"/>
      <use xlink:href="#DejaVuSans-61" x="670.410156"/>
      <use xlink:href="#DejaVuSans-6c" x="731.689453"/>
      <use xlink:href="#DejaVuSans-73" x="759.472656"/>
     </g>
    </g>
    <g id="line2d_16">
     <path d="M 221.064567 50.372813 
L 231.064567 50.372813 
L 241.064567 50.372813 
" style="fill: none; stroke: #1f77b4; stroke-width: 1.5; stroke-linecap: square"/>
    </g>
    <g id="text_10">
     <!-- 16 -->
     <g transform="translate(249.064567 53.872813)scale(0.1 -0.1)">
      <defs>
       <path id="DejaVuSans-36" d="M 2113 2584 
Q 1688 2584 1439 2293 
Q 1191 2003 1191 1497 
Q 1191 994 1439 701 
Q 1688 409 2113 409 
Q 2538 409 2786 701 
Q 3034 994 3034 1497 
Q 3034 2003 2786 2293 
Q 2538 2584 2113 2584 
z
M 3366 4563 
L 3366 3988 
Q 3128 4100 2886 4159 
Q 2644 4219 2406 4219 
Q 1781 4219 1451 3797 
Q 1122 3375 1075 2522 
Q 1259 2794 1537 2939 
Q 1816 3084 2150 3084 
Q 2853 3084 3261 2657 
Q 3669 2231 3669 1497 
Q 3669 778 3244 343 
Q 2819 -91 2113 -91 
Q 1303 -91 875 529 
Q 447 1150 447 2328 
Q 447 3434 972 4092 
Q 1497 4750 2381 4750 
Q 2619 4750 2861 4703 
Q 3103 4656 3366 4563 
z
" transform="scale(0.015625)"/>
      </defs>
      <use xlink:href="#DejaVuSans-31"/>
      <use xlink:href="#DejaVuSans-36" x="63.623047"/>
     </g>
    </g>
    <g id="line2d_17">
     <path d="M 221.064567 65.050938 
L 231.064567 65.050938 
L 241.064567 65.050938 
" style="fill: none; stroke: #ff7f0e; stroke-width: 1.5; stroke-linecap: square"/>
    </g>
    <g id="text_11">
     <!-- 32 -->
     <g transform="translate(249.064567 68.550938)scale(0.1 -0.1)">
      <use xlink:href="#DejaVuSans-33"/>
      <use xlink:href="#DejaVuSans-32" x="63.623047"/>
     </g>
    </g>
    <g id="line2d_18">
     <path d="M 221.064567 79.729063 
L 231.064567 79.729063 
L 241.064567 79.729063 
" style="fill: none; stroke: #2ca02c; stroke-width: 1.5; stroke-linecap: square"/>
    </g>
    <g id="text_12">
     <!-- 64 -->
     <g transform="translate(249.064567 83.229063)scale(0.1 -0.1)">
      <use xlink:href="#DejaVuSans-36"/>
      <use xlink:href="#DejaVuSans-34" x="63.623047"/>
     </g>
    </g>
    <g id="line2d_19">
     <path d="M 221.064567 94.407188 
L 231.064567 94.407188 
L 241.064567 94.407188 
" style="fill: none; stroke: #d62728; stroke-width: 1.5; stroke-linecap: square"/>
    </g>
    <g id="text_13">
     <!-- 96 -->
     <g transform="translate(249.064567 97.907188)scale(0.1 -0.1)">
      <defs>
       <path id="DejaVuSans-39" d="M 703 97 
L 703 672 
Q 941 559 1184 500 
Q 1428 441 1663 441 
Q 2288 441 2617 861 
Q 2947 1281 2994 2138 
Q 2813 1869 2534 1725 
Q 2256 1581 1919 1581 
Q 1219 1581 811 2004 
Q 403 2428 403 3163 
Q 403 3881 828 4315 
Q 1253 4750 1959 4750 
Q 2769 4750 3195 4129 
Q 3622 3509 3622 2328 
Q 3622 1225 3098 567 
Q 2575 -91 1691 -91 
Q 1453 -91 1209 -44 
Q 966 3 703 97 
z
M 1959 2075 
Q 2384 2075 2632 2365 
Q 2881 2656 2881 3163 
Q 2881 3666 2632 3958 
Q 2384 4250 1959 4250 
Q 1534 4250 1286 3958 
Q 1038 3666 1038 3163 
Q 1038 2656 1286 2365 
Q 1534 2075 1959 2075 
z
" transform="scale(0.015625)"/>
      </defs>
      <use xlink:href="#DejaVuSans-39"/>
      <use xlink:href="#DejaVuSans-36" x="63.623047"/>
     </g>
    </g>
    <g id="line2d_20">
     <path d="M 221.064567 109.085313 
L 231.064567 109.085313 
L 241.064567 109.085313 
" style="fill: none; stroke: #9467bd; stroke-width: 1.5; stroke-linecap: square"/>
    </g>
    <g id="text_14">
     <!-- 128 -->
     <g transform="translate(249.064567 112.585313)scale(0.1 -0.1)">
      <defs>
       <path id="DejaVuSans-38" d="M 2034 2216 
Q 1584 2216 1326 1975 
Q 1069 1734 1069 1313 
Q 1069 891 1326 650 
Q 1584 409 2034 409 
Q 2484 409 2743 651 
Q 3003 894 3003 1313 
Q 3003 1734 2745 1975 
Q 2488 2216 2034 2216 
z
M 1403 2484 
Q 997 2584 770 2862 
Q 544 3141 544 3541 
Q 544 4100 942 4425 
Q 1341 4750 2034 4750 
Q 2731 4750 3128 4425 
Q 3525 4100 3525 3541 
Q 3525 3141 3298 2862 
Q 3072 2584 2669 2484 
Q 3125 2378 3379 2068 
Q 3634 1759 3634 1313 
Q 3634 634 3220 271 
Q 2806 -91 2034 -91 
Q 1263 -91 848 271 
Q 434 634 434 1313 
Q 434 1759 690 2068 
Q 947 2378 1403 2484 
z
M 1172 3481 
Q 1172 3119 1398 2916 
Q 1625 2713 2034 2713 
Q 2441 2713 2670 2916 
Q 2900 3119 2900 3481 
Q 2900 3844 2670 4047 
Q 2441 4250 2034 4250 
Q 1625 4250 1398 4047 
Q 1172 3844 1172 3481 
z
" transform="scale(0.015625)"/>
      </defs>
      <use xlink:href="#DejaVuSans-31"/>
      <use xlink:href="#DejaVuSans-32" x="63.623047"/>
      <use xlink:href="#DejaVuSans-38" x="127.246094"/>
     </g>
    </g>
   </g>
  </g>
  <g id="axes_2">
   <g id="patch_8">
    <path d="M 308.486442 257.536442 
L 552.529134 257.536442 
L 552.529134 22.318125 
L 308.486442 22.318125 
z
" style="fill: #ffffff"/>
   </g>
   <g id="matplotlib.axis_3">
    <g id="xtick_5">
     <g id="line2d_21">
      <g>
       <use xlink:href="#mdb6e50aa95" x="366.286027" y="257.536442" style="stroke: #000000; stroke-width: 0.8"/>
      </g>
     </g>
    </g>
    <g id="xtick_6">
     <g id="line2d_22">
      <g>
       <use xlink:href="#mdb6e50aa95" x="424.669446" y="257.536442" style="stroke: #000000; stroke-width: 0.8"/>
      </g>
     </g>
    </g>
    <g id="xtick_7">
     <g id="line2d_23">
      <g>
       <use xlink:href="#mdb6e50aa95" x="483.052865" y="257.536442" style="stroke: #000000; stroke-width: 0.8"/>
      </g>
     </g>
    </g>
    <g id="xtick_8">
     <g id="line2d_24">
      <g>
       <use xlink:href="#mdb6e50aa95" x="541.436284" y="257.536442" style="stroke: #000000; stroke-width: 0.8"/>
      </g>
     </g>
    </g>
   </g>
   <g id="matplotlib.axis_4">
    <g id="ytick_7">
     <g id="line2d_25">
      <g>
       <use xlink:href="#mabbc30672e" x="308.486442" y="247.760571" style="stroke: #000000; stroke-width: 0.8"/>
      </g>
     </g>
    </g>
    <g id="ytick_8">
     <g id="line2d_26">
      <g>
       <use xlink:href="#mabbc30672e" x="308.486442" y="205.59843" style="stroke: #000000; stroke-width: 0.8"/>
      </g>
     </g>
    </g>
    <g id="ytick_9">
     <g id="line2d_27">
      <g>
       <use xlink:href="#mabbc30672e" x="308.486442" y="163.436289" style="stroke: #000000; stroke-width: 0.8"/>
      </g>
     </g>
    </g>
    <g id="ytick_10">
     <g id="line2d_28">
      <g>
       <use xlink:href="#mabbc30672e" x="308.486442" y="121.274148" style="stroke: #000000; stroke-width: 0.8"/>
      </g>
     </g>
    </g>
    <g id="ytick_11">
     <g id="line2d_29">
      <g>
       <use xlink:href="#mabbc30672e" x="308.486442" y="79.112007" style="stroke: #000000; stroke-width: 0.8"/>
      </g>
     </g>
    </g>
    <g id="ytick_12">
     <g id="line2d_30">
      <g>
       <use xlink:href="#mabbc30672e" x="308.486442" y="36.949866" style="stroke: #000000; stroke-width: 0.8"/>
      </g>
     </g>
    </g>
   </g>
   <g id="line2d_31">
    <path d="M 319.579292 56.041767 
L 331.255975 169.116921 
L 342.932659 217.719616 
L 354.609343 212.113533 
L 366.286027 221.015321 
L 377.962711 222.60618 
L 389.639395 223.526359 
L 401.316078 223.032351 
L 412.992762 217.715334 
L 424.669446 190.757831 
L 436.34613 184.968521 
L 448.022814 200.69378 
L 459.699497 195.908346 
L 471.376181 211.868965 
L 483.052865 223.041842 
L 494.729549 222.839698 
L 506.406233 220.86498 
L 518.082917 187.359848 
L 529.7596 222.26048 
L 541.436284 212.856145 
" clip-path="url(#p6b5d669d76)" style="fill: none; stroke: #1f77b4; stroke-width: 1.5; stroke-linecap: square"/>
   </g>
   <g id="line2d_32">
    <path d="M 319.579292 40.211931 
L 331.255975 160.778652 
L 342.932659 225.295515 
L 354.609343 230.123517 
L 366.286027 229.095113 
L 377.962711 231.402406 
L 389.639395 222.954536 
L 401.316078 231.007309 
L 412.992762 205.042447 
L 424.669446 233.070239 
L 436.34613 230.307594 
L 448.022814 228.716681 
L 459.699497 231.617284 
L 471.376181 232.708512 
L 483.052865 229.962929 
L 494.729549 232.465423 
L 506.406233 226.242525 
L 518.082917 227.66464 
L 529.7596 221.2332 
L 541.436284 231.167888 
" clip-path="url(#p6b5d669d76)" style="fill: none; stroke: #ff7f0e; stroke-width: 1.5; stroke-linecap: square"/>
   </g>
   <g id="line2d_33">
    <path d="M 319.579292 54.671195 
L 331.255975 186.780889 
L 342.932659 228.217867 
L 354.609343 233.059177 
L 366.286027 231.52996 
L 377.962711 234.445445 
L 389.639395 234.077448 
L 401.316078 235.514953 
L 412.992762 225.105394 
L 424.669446 231.541589 
L 436.34613 235.910324 
L 448.022814 235.151755 
L 459.699497 232.705156 
L 471.376181 233.558198 
L 483.052865 230.832104 
L 494.729549 234.047868 
L 506.406233 229.255542 
L 518.082917 233.942833 
L 529.7596 234.89822 
L 541.436284 233.49583 
" clip-path="url(#p6b5d669d76)" style="fill: none; stroke: #2ca02c; stroke-width: 1.5; stroke-linecap: square"/>
   </g>
   <g id="line2d_34">
    <path d="M 319.579292 59.038314 
L 331.255975 194.926324 
L 342.932659 229.720171 
L 354.609343 233.139254 
L 366.286027 232.301486 
L 377.962711 224.485174 
L 389.639395 205.655297 
L 401.316078 210.234971 
L 412.992762 228.808838 
L 424.669446 232.905654 
L 436.34613 236.727734 
L 448.022814 237.594406 
L 459.699497 235.239972 
L 471.376181 225.257853 
L 483.052865 236.89792 
L 494.729549 235.905141 
L 506.406233 229.748034 
L 518.082917 235.655524 
L 529.7596 232.712882 
L 541.436284 235.254809 
" clip-path="url(#p6b5d669d76)" style="fill: none; stroke: #d62728; stroke-width: 1.5; stroke-linecap: square"/>
   </g>
   <g id="line2d_35">
    <path d="M 319.579292 33.009867 
L 331.255975 203.299103 
L 342.932659 229.072305 
L 354.609343 228.371484 
L 366.286027 233.578026 
L 377.962711 234.671349 
L 389.639395 233.45929 
L 401.316078 208.586963 
L 412.992762 227.225923 
L 424.669446 229.32118 
L 436.34613 235.07466 
L 448.022814 236.108135 
L 459.699497 236.449839 
L 471.376181 233.062782 
L 483.052865 224.992189 
L 494.729549 235.862144 
L 506.406233 234.638681 
L 518.082917 227.704724 
L 529.7596 237.031222 
L 541.436284 235.853716 
" clip-path="url(#p6b5d669d76)" style="fill: none; stroke: #9467bd; stroke-width: 1.5; stroke-linecap: square"/>
   </g>
   <g id="patch_9">
    <path d="M 308.486442 257.536442 
L 308.486442 22.318125 
" style="fill: none; stroke: #000000; stroke-width: 0.8; stroke-linejoin: miter; stroke-linecap: square"/>
   </g>
   <g id="patch_10">
    <path d="M 552.529134 257.536442 
L 552.529134 22.318125 
" style="fill: none; stroke: #000000; stroke-width: 0.8; stroke-linejoin: miter; stroke-linecap: square"/>
   </g>
   <g id="patch_11">
    <path d="M 308.486442 257.536442 
L 552.529134 257.536442 
" style="fill: none; stroke: #000000; stroke-width: 0.8; stroke-linejoin: miter; stroke-linecap: square"/>
   </g>
   <g id="patch_12">
    <path d="M 308.486442 22.318125 
L 552.529134 22.318125 
" style="fill: none; stroke: #000000; stroke-width: 0.8; stroke-linejoin: miter; stroke-linecap: square"/>
   </g>
   <g id="text_15">
    <!-- test_loss -->
    <g transform="translate(404.396538 16.318125)scale(0.12 -0.12)">
     <defs>
      <path id="DejaVuSans-65" d="M 3597 1894 
L 3597 1613 
L 953 1613 
Q 991 1019 1311 708 
Q 1631 397 2203 397 
Q 2534 397 2845 478 
Q 3156 559 3463 722 
L 3463 178 
Q 3153 47 2828 -22 
Q 2503 -91 2169 -91 
Q 1331 -91 842 396 
Q 353 884 353 1716 
Q 353 2575 817 3079 
Q 1281 3584 2069 3584 
Q 2775 3584 3186 3129 
Q 3597 2675 3597 1894 
z
M 3022 2063 
Q 3016 2534 2758 2815 
Q 2500 3097 2075 3097 
Q 1594 3097 1305 2825 
Q 1016 2553 972 2059 
L 3022 2063 
z
" transform="scale(0.015625)"/>
     </defs>
     <use xlink:href="#DejaVuSans-74"/>
     <use xlink:href="#DejaVuSans-65" x="39.208984"/>
     <use xlink:href="#DejaVuSans-73" x="100.732422"/>
     <use xlink:href="#DejaVuSans-74" x="152.832031"/>
     <use xlink:href="#DejaVuSans-5f" x="192.041016"/>
     <use xlink:href="#DejaVuSans-6c" x="242.041016"/>
     <use xlink:href="#DejaVuSans-6f" x="269.824219"/>
     <use xlink:href="#DejaVuSans-73" x="331.005859"/>
     <use xlink:href="#DejaVuSans-73" x="383.105469"/>
    </g>
   </g>
  </g>
  <g id="axes_3">
   <g id="patch_13">
    <path d="M 50.14375 522.172884 
L 294.186442 522.172884 
L 294.186442 286.954567 
L 50.14375 286.954567 
z
" style="fill: #ffffff"/>
   </g>
   <g id="matplotlib.axis_5">
    <g id="xtick_9">
     <g id="line2d_36">
      <g>
       <use xlink:href="#mdb6e50aa95" x="107.943335" y="522.172884" style="stroke: #000000; stroke-width: 0.8"/>
      </g>
     </g>
     <g id="text_16">
      <!-- 5 -->
      <g transform="translate(104.762085 536.771321)scale(0.1 -0.1)">
       <use xlink:href="#DejaVuSans-35"/>
      </g>
     </g>
    </g>
    <g id="xtick_10">
     <g id="line2d_37">
      <g>
       <use xlink:href="#mdb6e50aa95" x="166.326754" y="522.172884" style="stroke: #000000; stroke-width: 0.8"/>
      </g>
     </g>
     <g id="text_17">
      <!-- 10 -->
      <g transform="translate(159.964254 536.771321)scale(0.1 -0.1)">
       <use xlink:href="#DejaVuSans-31"/>
       <use xlink:href="#DejaVuSans-30" x="63.623047"/>
      </g>
     </g>
    </g>
    <g id="xtick_11">
     <g id="line2d_38">
      <g>
       <use xlink:href="#mdb6e50aa95" x="224.710173" y="522.172884" style="stroke: #000000; stroke-width: 0.8"/>
      </g>
     </g>
     <g id="text_18">
      <!-- 15 -->
      <g transform="translate(218.347673 536.771321)scale(0.1 -0.1)">
       <use xlink:href="#DejaVuSans-31"/>
       <use xlink:href="#DejaVuSans-35" x="63.623047"/>
      </g>
     </g>
    </g>
    <g id="xtick_12">
     <g id="line2d_39">
      <g>
       <use xlink:href="#mdb6e50aa95" x="283.093592" y="522.172884" style="stroke: #000000; stroke-width: 0.8"/>
      </g>
     </g>
     <g id="text_19">
      <!-- 20 -->
      <g transform="translate(276.731092 536.771321)scale(0.1 -0.1)">
       <use xlink:href="#DejaVuSans-32"/>
       <use xlink:href="#DejaVuSans-30" x="63.623047"/>
      </g>
     </g>
    </g>
    <g id="text_20">
     <!-- epoch -->
     <g transform="translate(156.936971 550.449446)scale(0.1 -0.1)">
      <defs>
       <path id="DejaVuSans-70" d="M 1159 525 
L 1159 -1331 
L 581 -1331 
L 581 3500 
L 1159 3500 
L 1159 2969 
Q 1341 3281 1617 3432 
Q 1894 3584 2278 3584 
Q 2916 3584 3314 3078 
Q 3713 2572 3713 1747 
Q 3713 922 3314 415 
Q 2916 -91 2278 -91 
Q 1894 -91 1617 61 
Q 1341 213 1159 525 
z
M 3116 1747 
Q 3116 2381 2855 2742 
Q 2594 3103 2138 3103 
Q 1681 3103 1420 2742 
Q 1159 2381 1159 1747 
Q 1159 1113 1420 752 
Q 1681 391 2138 391 
Q 2594 391 2855 752 
Q 3116 1113 3116 1747 
z
" transform="scale(0.015625)"/>
       <path id="DejaVuSans-63" d="M 3122 3366 
L 3122 2828 
Q 2878 2963 2633 3030 
Q 2388 3097 2138 3097 
Q 1578 3097 1268 2742 
Q 959 2388 959 1747 
Q 959 1106 1268 751 
Q 1578 397 2138 397 
Q 2388 397 2633 464 
Q 2878 531 3122 666 
L 3122 134 
Q 2881 22 2623 -34 
Q 2366 -91 2075 -91 
Q 1284 -91 818 406 
Q 353 903 353 1747 
Q 353 2603 823 3093 
Q 1294 3584 2113 3584 
Q 2378 3584 2631 3529 
Q 2884 3475 3122 3366 
z
" transform="scale(0.015625)"/>
       <path id="DejaVuSans-68" d="M 3513 2113 
L 3513 0 
L 2938 0 
L 2938 2094 
Q 2938 2591 2744 2837 
Q 2550 3084 2163 3084 
Q 1697 3084 1428 2787 
Q 1159 2491 1159 1978 
L 1159 0 
L 581 0 
L 581 4863 
L 1159 4863 
L 1159 2956 
Q 1366 3272 1645 3428 
Q 1925 3584 2291 3584 
Q 2894 3584 3203 3211 
Q 3513 2838 3513 2113 
z
" transform="scale(0.015625)"/>
      </defs>
      <use xlink:href="#DejaVuSans-65"/>
      <use xlink:href="#DejaVuSans-70" x="61.523438"/>
      <use xlink:href="#DejaVuSans-6f" x="125"/>
      <use xlink:href="#DejaVuSans-63" x="186.181641"/>
      <use xlink:href="#DejaVuSans-68" x="241.162109"/>
     </g>
    </g>
   </g>
   <g id="matplotlib.axis_6">
    <g id="ytick_13">
     <g id="line2d_40">
      <g>
       <use xlink:href="#mabbc30672e" x="50.14375" y="518.931104" style="stroke: #000000; stroke-width: 0.8"/>
      </g>
     </g>
     <g id="text_21">
      <!-- 0.70 -->
      <g transform="translate(20.878125 522.730323)scale(0.1 -0.1)">
       <defs>
        <path id="DejaVuSans-37" d="M 525 4666 
L 3525 4666 
L 3525 4397 
L 1831 0 
L 1172 0 
L 2766 4134 
L 525 4134 
L 525 4666 
z
" transform="scale(0.015625)"/>
       </defs>
       <use xlink:href="#DejaVuSans-30"/>
       <use xlink:href="#DejaVuSans-2e" x="63.623047"/>
       <use xlink:href="#DejaVuSans-37" x="95.410156"/>
       <use xlink:href="#DejaVuSans-30" x="159.033203"/>
      </g>
     </g>
    </g>
    <g id="ytick_14">
     <g id="line2d_41">
      <g>
       <use xlink:href="#mabbc30672e" x="50.14375" y="482.050305" style="stroke: #000000; stroke-width: 0.8"/>
      </g>
     </g>
     <g id="text_22">
      <!-- 0.75 -->
      <g transform="translate(20.878125 485.849524)scale(0.1 -0.1)">
       <use xlink:href="#DejaVuSans-30"/>
       <use xlink:href="#DejaVuSans-2e" x="63.623047"/>
       <use xlink:href="#DejaVuSans-37" x="95.410156"/>
       <use xlink:href="#DejaVuSans-35" x="159.033203"/>
      </g>
     </g>
    </g>
    <g id="ytick_15">
     <g id="line2d_42">
      <g>
       <use xlink:href="#mabbc30672e" x="50.14375" y="445.169506" style="stroke: #000000; stroke-width: 0.8"/>
      </g>
     </g>
     <g id="text_23">
      <!-- 0.80 -->
      <g transform="translate(20.878125 448.968724)scale(0.1 -0.1)">
       <use xlink:href="#DejaVuSans-30"/>
       <use xlink:href="#DejaVuSans-2e" x="63.623047"/>
       <use xlink:href="#DejaVuSans-38" x="95.410156"/>
       <use xlink:href="#DejaVuSans-30" x="159.033203"/>
      </g>
     </g>
    </g>
    <g id="ytick_16">
     <g id="line2d_43">
      <g>
       <use xlink:href="#mabbc30672e" x="50.14375" y="408.288706" style="stroke: #000000; stroke-width: 0.8"/>
      </g>
     </g>
     <g id="text_24">
      <!-- 0.85 -->
      <g transform="translate(20.878125 412.087925)scale(0.1 -0.1)">
       <use xlink:href="#DejaVuSans-30"/>
       <use xlink:href="#DejaVuSans-2e" x="63.623047"/>
       <use xlink:href="#DejaVuSans-38" x="95.410156"/>
       <use xlink:href="#DejaVuSans-35" x="159.033203"/>
      </g>
     </g>
    </g>
    <g id="ytick_17">
     <g id="line2d_44">
      <g>
       <use xlink:href="#mabbc30672e" x="50.14375" y="371.407907" style="stroke: #000000; stroke-width: 0.8"/>
      </g>
     </g>
     <g id="text_25">
      <!-- 0.90 -->
      <g transform="translate(20.878125 375.207126)scale(0.1 -0.1)">
       <use xlink:href="#DejaVuSans-30"/>
       <use xlink:href="#DejaVuSans-2e" x="63.623047"/>
       <use xlink:href="#DejaVuSans-39" x="95.410156"/>
       <use xlink:href="#DejaVuSans-30" x="159.033203"/>
      </g>
     </g>
    </g>
    <g id="ytick_18">
     <g id="line2d_45">
      <g>
       <use xlink:href="#mabbc30672e" x="50.14375" y="334.527108" style="stroke: #000000; stroke-width: 0.8"/>
      </g>
     </g>
     <g id="text_26">
      <!-- 0.95 -->
      <g transform="translate(20.878125 338.326327)scale(0.1 -0.1)">
       <use xlink:href="#DejaVuSans-30"/>
       <use xlink:href="#DejaVuSans-2e" x="63.623047"/>
       <use xlink:href="#DejaVuSans-39" x="95.410156"/>
       <use xlink:href="#DejaVuSans-35" x="159.033203"/>
      </g>
     </g>
    </g>
    <g id="ytick_19">
     <g id="line2d_46">
      <g>
       <use xlink:href="#mabbc30672e" x="50.14375" y="297.646309" style="stroke: #000000; stroke-width: 0.8"/>
      </g>
     </g>
     <g id="text_27">
      <!-- 1.00 -->
      <g transform="translate(20.878125 301.445527)scale(0.1 -0.1)">
       <use xlink:href="#DejaVuSans-31"/>
       <use xlink:href="#DejaVuSans-2e" x="63.623047"/>
       <use xlink:href="#DejaVuSans-30" x="95.410156"/>
       <use xlink:href="#DejaVuSans-30" x="159.033203"/>
      </g>
     </g>
    </g>
    <g id="text_28">
     <!-- accuracy -->
     <g transform="translate(14.798438 427.1231)rotate(-90)scale(0.1 -0.1)">
      <defs>
       <path id="DejaVuSans-79" d="M 2059 -325 
Q 1816 -950 1584 -1140 
Q 1353 -1331 966 -1331 
L 506 -1331 
L 506 -850 
L 844 -850 
Q 1081 -850 1212 -737 
Q 1344 -625 1503 -206 
L 1606 56 
L 191 3500 
L 800 3500 
L 1894 763 
L 2988 3500 
L 3597 3500 
L 2059 -325 
z
" transform="scale(0.015625)"/>
      </defs>
      <use xlink:href="#DejaVuSans-61"/>
      <use xlink:href="#DejaVuSans-63" x="61.279297"/>
      <use xlink:href="#DejaVuSans-63" x="116.259766"/>
      <use xlink:href="#DejaVuSans-75" x="171.240234"/>
      <use xlink:href="#DejaVuSans-72" x="234.619141"/>
      <use xlink:href="#DejaVuSans-61" x="275.732422"/>
      <use xlink:href="#DejaVuSans-63" x="337.011719"/>
      <use xlink:href="#DejaVuSans-79" x="391.992188"/>
     </g>
    </g>
   </g>
   <g id="line2d_47">
    <path d="M 61.2366 377.898879 
L 72.913283 321.028702 
L 84.589967 314.611434 
L 96.266651 307.014003 
L 107.943335 305.022417 
L 119.620019 303.694708 
L 131.296703 301.703166 
L 142.973386 300.818012 
L 154.65007 301.113063 
L 166.326754 299.195251 
L 178.003438 299.121522 
L 189.680122 298.973974 
L 201.356806 298.973974 
L 213.033489 300.227909 
L 224.710173 299.342799 
L 236.386857 298.383871 
L 248.063541 297.941316 
L 259.740225 298.162594 
L 271.416908 300.154179 
L 283.093592 299.71158 
" clip-path="url(#p25cf509ada)" style="fill: none; stroke: #1f77b4; stroke-width: 1.5; stroke-linecap: square"/>
   </g>
   <g id="line2d_48">
    <path d="M 61.2366 358.499613 
L 72.913283 310.628306 
L 84.589967 306.866456 
L 96.266651 302.145721 
L 107.943335 301.924444 
L 119.620019 300.522961 
L 131.296703 299.564077 
L 142.973386 298.9002 
L 154.65007 299.195251 
L 166.326754 299.785354 
L 178.003438 298.82647 
L 189.680122 298.088864 
L 201.356806 298.9002 
L 213.033489 298.162594 
L 224.710173 298.088864 
L 236.386857 297.720038 
L 248.063541 299.047748 
L 259.740225 297.867542 
L 271.416908 297.793812 
L 283.093592 297.646309 
" clip-path="url(#p25cf509ada)" style="fill: none; stroke: #ff7f0e; stroke-width: 1.5; stroke-linecap: square"/>
   </g>
   <g id="line2d_49">
    <path d="M 61.2366 348.394268 
L 72.913283 307.75161 
L 84.589967 304.063533 
L 96.266651 301.703166 
L 107.943335 301.03929 
L 119.620019 299.71158 
L 131.296703 299.269025 
L 142.973386 298.088864 
L 154.65007 298.310141 
L 166.326754 298.01509 
L 178.003438 298.236367 
L 189.680122 297.720038 
L 201.356806 297.720038 
L 213.033489 298.9002 
L 224.710173 298.9002 
L 236.386857 298.088864 
L 248.063541 297.720038 
L 259.740225 298.9002 
L 271.416908 297.941316 
L 283.093592 298.01509 
" clip-path="url(#p25cf509ada)" style="fill: none; stroke: #2ca02c; stroke-width: 1.5; stroke-linecap: square"/>
   </g>
   <g id="line2d_50">
    <path d="M 61.2366 346.771507 
L 72.913283 306.718952 
L 84.589967 302.071992 
L 96.266651 300.670508 
L 107.943335 300.227909 
L 119.620019 299.932902 
L 131.296703 298.973974 
L 142.973386 298.605193 
L 154.65007 300.006632 
L 166.326754 298.457645 
L 178.003438 297.867542 
L 189.680122 297.941316 
L 201.356806 297.793812 
L 213.033489 298.162594 
L 224.710173 298.162594 
L 236.386857 298.01509 
L 248.063541 297.941316 
L 259.740225 297.867542 
L 271.416908 298.01509 
L 283.093592 297.867542 
" clip-path="url(#p25cf509ada)" style="fill: none; stroke: #d62728; stroke-width: 1.5; stroke-linecap: square"/>
   </g>
   <g id="line2d_51">
    <path d="M 61.2366 348.836823 
L 72.913283 307.235281 
L 84.589967 303.399657 
L 96.266651 301.408115 
L 107.943335 301.334341 
L 119.620019 299.785354 
L 131.296703 299.416573 
L 142.973386 298.678923 
L 154.65007 298.752696 
L 166.326754 298.678923 
L 178.003438 299.269025 
L 189.680122 298.162594 
L 201.356806 297.720038 
L 213.033489 297.720038 
L 224.710173 298.457645 
L 236.386857 298.088864 
L 248.063541 298.457645 
L 259.740225 298.383871 
L 271.416908 297.720038 
L 283.093592 297.867542 
" clip-path="url(#p25cf509ada)" style="fill: none; stroke: #9467bd; stroke-width: 1.5; stroke-linecap: square"/>
   </g>
   <g id="patch_14">
    <path d="M 50.14375 522.172884 
L 50.14375 286.954567 
" style="fill: none; stroke: #000000; stroke-width: 0.8; stroke-linejoin: miter; stroke-linecap: square"/>
   </g>
   <g id="patch_15">
    <path d="M 294.186442 522.172884 
L 294.186442 286.954567 
" style="fill: none; stroke: #000000; stroke-width: 0.8; stroke-linejoin: miter; stroke-linecap: square"/>
   </g>
   <g id="patch_16">
    <path d="M 50.14375 522.172884 
L 294.186442 522.172884 
" style="fill: none; stroke: #000000; stroke-width: 0.8; stroke-linejoin: miter; stroke-linecap: square"/>
   </g>
   <g id="patch_17">
    <path d="M 50.14375 286.954567 
L 294.186442 286.954567 
" style="fill: none; stroke: #000000; stroke-width: 0.8; stroke-linejoin: miter; stroke-linecap: square"/>
   </g>
   <g id="text_29">
    <!-- train_accuracy -->
    <g transform="translate(128.128846 280.954567)scale(0.12 -0.12)">
     <use xlink:href="#DejaVuSans-74"/>
     <use xlink:href="#DejaVuSans-72" x="39.208984"/>
     <use xlink:href="#DejaVuSans-61" x="80.322266"/>
     <use xlink:href="#DejaVuSans-69" x="141.601562"/>
     <use xlink:href="#DejaVuSans-6e" x="169.384766"/>
     <use xlink:href="#DejaVuSans-5f" x="232.763672"/>
     <use xlink:href="#DejaVuSans-61" x="282.763672"/>
     <use xlink:href="#DejaVuSans-63" x="344.042969"/>
     <use xlink:href="#DejaVuSans-63" x="399.023438"/>
     <use xlink:href="#DejaVuSans-75" x="454.003906"/>
     <use xlink:href="#DejaVuSans-72" x="517.382812"/>
     <use xlink:href="#DejaVuSans-61" x="558.496094"/>
     <use xlink:href="#DejaVuSans-63" x="619.775391"/>
     <use xlink:href="#DejaVuSans-79" x="674.755859"/>
    </g>
   </g>
  </g>
  <g id="axes_4">
   <g id="patch_18">
    <path d="M 308.486442 522.172884 
L 552.529134 522.172884 
L 552.529134 286.954567 
L 308.486442 286.954567 
z
" style="fill: #ffffff"/>
   </g>
   <g id="matplotlib.axis_7">
    <g id="xtick_13">
     <g id="line2d_52">
      <g>
       <use xlink:href="#mdb6e50aa95" x="366.286027" y="522.172884" style="stroke: #000000; stroke-width: 0.8"/>
      </g>
     </g>
     <g id="text_30">
      <!-- 5 -->
      <g transform="translate(363.104777 536.771321)scale(0.1 -0.1)">
       <use xlink:href="#DejaVuSans-35"/>
      </g>
     </g>
    </g>
    <g id="xtick_14">
     <g id="line2d_53">
      <g>
       <use xlink:href="#mdb6e50aa95" x="424.669446" y="522.172884" style="stroke: #000000; stroke-width: 0.8"/>
      </g>
     </g>
     <g id="text_31">
      <!-- 10 -->
      <g transform="translate(418.306946 536.771321)scale(0.1 -0.1)">
       <use xlink:href="#DejaVuSans-31"/>
       <use xlink:href="#DejaVuSans-30" x="63.623047"/>
      </g>
     </g>
    </g>
    <g id="xtick_15">
     <g id="line2d_54">
      <g>
       <use xlink:href="#mdb6e50aa95" x="483.052865" y="522.172884" style="stroke: #000000; stroke-width: 0.8"/>
      </g>
     </g>
     <g id="text_32">
      <!-- 15 -->
      <g transform="translate(476.690365 536.771321)scale(0.1 -0.1)">
       <use xlink:href="#DejaVuSans-31"/>
       <use xlink:href="#DejaVuSans-35" x="63.623047"/>
      </g>
     </g>
    </g>
    <g id="xtick_16">
     <g id="line2d_55">
      <g>
       <use xlink:href="#mdb6e50aa95" x="541.436284" y="522.172884" style="stroke: #000000; stroke-width: 0.8"/>
      </g>
     </g>
     <g id="text_33">
      <!-- 20 -->
      <g transform="translate(535.073784 536.771321)scale(0.1 -0.1)">
       <use xlink:href="#DejaVuSans-32"/>
       <use xlink:href="#DejaVuSans-30" x="63.623047"/>
      </g>
     </g>
    </g>
    <g id="text_34">
     <!-- epoch -->
     <g transform="translate(415.279663 550.449446)scale(0.1 -0.1)">
      <use xlink:href="#DejaVuSans-65"/>
      <use xlink:href="#DejaVuSans-70" x="61.523438"/>
      <use xlink:href="#DejaVuSans-6f" x="125"/>
      <use xlink:href="#DejaVuSans-63" x="186.181641"/>
      <use xlink:href="#DejaVuSans-68" x="241.162109"/>
     </g>
    </g>
   </g>
   <g id="matplotlib.axis_8">
    <g id="ytick_20">
     <g id="line2d_56">
      <g>
       <use xlink:href="#mabbc30672e" x="308.486442" y="518.931104" style="stroke: #000000; stroke-width: 0.8"/>
      </g>
     </g>
    </g>
    <g id="ytick_21">
     <g id="line2d_57">
      <g>
       <use xlink:href="#mabbc30672e" x="308.486442" y="482.050305" style="stroke: #000000; stroke-width: 0.8"/>
      </g>
     </g>
    </g>
    <g id="ytick_22">
     <g id="line2d_58">
      <g>
       <use xlink:href="#mabbc30672e" x="308.486442" y="445.169506" style="stroke: #000000; stroke-width: 0.8"/>
      </g>
     </g>
    </g>
    <g id="ytick_23">
     <g id="line2d_59">
      <g>
       <use xlink:href="#mabbc30672e" x="308.486442" y="408.288706" style="stroke: #000000; stroke-width: 0.8"/>
      </g>
     </g>
    </g>
    <g id="ytick_24">
     <g id="line2d_60">
      <g>
       <use xlink:href="#mabbc30672e" x="308.486442" y="371.407907" style="stroke: #000000; stroke-width: 0.8"/>
      </g>
     </g>
    </g>
    <g id="ytick_25">
     <g id="line2d_61">
      <g>
       <use xlink:href="#mabbc30672e" x="308.486442" y="334.527108" style="stroke: #000000; stroke-width: 0.8"/>
      </g>
     </g>
    </g>
    <g id="ytick_26">
     <g id="line2d_62">
      <g>
       <use xlink:href="#mabbc30672e" x="308.486442" y="297.646309" style="stroke: #000000; stroke-width: 0.8"/>
      </g>
     </g>
    </g>
   </g>
   <g id="line2d_63">
    <path d="M 319.579292 412.124269 
L 331.255975 346.992785 
L 342.932659 312.029789 
L 354.609343 320.069818 
L 366.286027 311.218409 
L 377.962711 310.70208 
L 389.639395 310.480802 
L 401.316078 311.734738 
L 412.992762 316.012917 
L 424.669446 329.880112 
L 436.34613 333.494415 
L 448.022814 323.831625 
L 459.699497 326.634591 
L 471.376181 319.405942 
L 483.052865 310.407028 
L 494.729549 309.595648 
L 506.406233 312.103563 
L 518.082917 330.543945 
L 529.7596 310.111977 
L 541.436284 316.086691 
" clip-path="url(#p5a5b17fab3)" style="fill: none; stroke: #1f77b4; stroke-width: 1.5; stroke-linecap: square"/>
   </g>
   <g id="line2d_64">
    <path d="M 319.579292 473.567676 
L 331.255975 357.319408 
L 342.932659 305.538746 
L 354.609343 304.80114 
L 366.286027 305.243739 
L 377.962711 305.538746 
L 389.639395 310.185751 
L 401.316078 306.571448 
L 412.992762 322.282638 
L 424.669446 304.948688 
L 436.34613 305.022417 
L 448.022814 306.128849 
L 459.699497 306.055075 
L 471.376181 303.842256 
L 483.052865 305.022417 
L 494.729549 305.022417 
L 506.406233 306.645178 
L 518.082917 308.046661 
L 529.7596 310.185751 
L 541.436284 305.465017 
" clip-path="url(#p5a5b17fab3)" style="fill: none; stroke: #ff7f0e; stroke-width: 1.5; stroke-linecap: square"/>
   </g>
   <g id="line2d_65">
    <path d="M 319.579292 424.885033 
L 331.255975 329.068732 
L 342.932659 302.957102 
L 354.609343 302.071992 
L 366.286027 304.579862 
L 377.962711 303.252153 
L 389.639395 301.998218 
L 401.316078 301.334341 
L 412.992762 311.070905 
L 424.669446 303.842256 
L 436.34613 302.219495 
L 448.022814 301.85067 
L 459.699497 304.579862 
L 471.376181 302.735824 
L 483.052865 303.473431 
L 494.729549 301.998218 
L 506.406233 307.825384 
L 518.082917 302.293269 
L 529.7596 301.924444 
L 541.436284 303.91603 
" clip-path="url(#p5a5b17fab3)" style="fill: none; stroke: #2ca02c; stroke-width: 1.5; stroke-linecap: square"/>
   </g>
   <g id="line2d_66">
    <path d="M 319.579292 424.2212 
L 331.255975 317.635677 
L 342.932659 301.629392 
L 354.609343 302.366999 
L 366.286027 302.145721 
L 377.962711 312.029789 
L 389.639395 317.709451 
L 401.316078 322.946515 
L 412.992762 308.046661 
L 424.669446 305.317469 
L 436.34613 300.891786 
L 448.022814 301.113063 
L 459.699497 302.366999 
L 471.376181 311.808511 
L 483.052865 300.891786 
L 494.729549 301.260611 
L 506.406233 307.456558 
L 518.082917 301.408115 
L 529.7596 301.77694 
L 541.436284 301.260611 
" clip-path="url(#p5a5b17fab3)" style="fill: none; stroke: #d62728; stroke-width: 1.5; stroke-linecap: square"/>
   </g>
   <g id="line2d_67">
    <path d="M 319.579292 511.481142 
L 331.255975 310.70208 
L 342.932659 301.85067 
L 354.609343 307.530332 
L 366.286027 303.104649 
L 377.962711 302.66205 
L 389.639395 301.703166 
L 401.316078 313.431272 
L 412.992762 310.333255 
L 424.669446 303.325927 
L 436.34613 302.071992 
L 448.022814 301.77694 
L 459.699497 301.408115 
L 471.376181 301.998218 
L 483.052865 304.506089 
L 494.729549 302.366999 
L 506.406233 303.104649 
L 518.082917 303.399657 
L 529.7596 301.629392 
L 541.436284 303.030876 
" clip-path="url(#p5a5b17fab3)" style="fill: none; stroke: #9467bd; stroke-width: 1.5; stroke-linecap: square"/>
   </g>
   <g id="patch_19">
    <path d="M 308.486442 522.172884 
L 308.486442 286.954567 
" style="fill: none; stroke: #000000; stroke-width: 0.8; stroke-linejoin: miter; stroke-linecap: square"/>
   </g>
   <g id="patch_20">
    <path d="M 552.529134 522.172884 
L 552.529134 286.954567 
" style="fill: none; stroke: #000000; stroke-width: 0.8; stroke-linejoin: miter; stroke-linecap: square"/>
   </g>
   <g id="patch_21">
    <path d="M 308.486442 522.172884 
L 552.529134 522.172884 
" style="fill: none; stroke: #000000; stroke-width: 0.8; stroke-linejoin: miter; stroke-linecap: square"/>
   </g>
   <g id="patch_22">
    <path d="M 308.486442 286.954567 
L 552.529134 286.954567 
" style="fill: none; stroke: #000000; stroke-width: 0.8; stroke-linejoin: miter; stroke-linecap: square"/>
   </g>
   <g id="text_35">
    <!-- test_accuracy -->
    <g transform="translate(388.914663 280.954567)scale(0.12 -0.12)">
     <use xlink:href="#DejaVuSans-74"/>
     <use xlink:href="#DejaVuSans-65" x="39.208984"/>
     <use xlink:href="#DejaVuSans-73" x="100.732422"/>
     <use xlink:href="#DejaVuSans-74" x="152.832031"/>
     <use xlink:href="#DejaVuSans-5f" x="192.041016"/>
     <use xlink:href="#DejaVuSans-61" x="242.041016"/>
     <use xlink:href="#DejaVuSans-63" x="303.320312"/>
     <use xlink:href="#DejaVuSans-63" x="358.300781"/>
     <use xlink:href="#DejaVuSans-75" x="413.28125"/>
     <use xlink:href="#DejaVuSans-72" x="476.660156"/>
     <use xlink:href="#DejaVuSans-61" x="517.773438"/>
     <use xlink:href="#DejaVuSans-63" x="579.052734"/>
     <use xlink:href="#DejaVuSans-79" x="634.033203"/>
    </g>
   </g>
  </g>
 </g>
 <defs>
  <clipPath id="pd629506aec">
   <rect x="50.14375" y="22.318125" width="244.042692" height="235.218317"/>
  </clipPath>
  <clipPath id="p6b5d669d76">
   <rect x="308.486442" y="22.318125" width="244.042692" height="235.218317"/>
  </clipPath>
  <clipPath id="p25cf509ada">
   <rect x="50.14375" y="286.954567" width="244.042692" height="235.218317"/>
  </clipPath>
  <clipPath id="p5a5b17fab3">
   <rect x="308.486442" y="286.954567" width="244.042692" height="235.218317"/>
  </clipPath>
 </defs>
</svg>
